G04 (created by PCBNEW (2013-05-31 BZR 4019)-stable) date 24.10.2013 17:05:54*
%MOIN*%
G04 Gerber Fmt 3.4, Leading zero omitted, Abs format*
%FSLAX34Y34*%
G01*
G70*
G90*
G04 APERTURE LIST*
%ADD10C,0.00590551*%
%ADD11C,0.06*%
%ADD12C,0.1063*%
%ADD13R,0.08X0.026*%
%ADD14R,0.05X0.016*%
%ADD15R,0.025X0.045*%
%ADD16R,0.045X0.025*%
%ADD17C,0.15748*%
%ADD18R,0.06X0.06*%
%ADD19C,0.066*%
%ADD20R,0.1024X0.063*%
%ADD21C,0.0472441*%
%ADD22C,0.011811*%
%ADD23C,0.01*%
G04 APERTURE END LIST*
G54D10*
G54D11*
X16650Y-25100D03*
X16650Y-24100D03*
X15863Y-24100D03*
X15863Y-25100D03*
G54D12*
X14800Y-26962D03*
X14800Y-22238D03*
G54D13*
X24270Y-20850D03*
X24270Y-21350D03*
X24270Y-21850D03*
X24270Y-22350D03*
X24270Y-22850D03*
X24270Y-23350D03*
X24270Y-23850D03*
X24270Y-24350D03*
X24270Y-24850D03*
X24270Y-25350D03*
X28230Y-25350D03*
X28230Y-24850D03*
X28230Y-24350D03*
X28230Y-23850D03*
X28230Y-23350D03*
X28230Y-22850D03*
X28230Y-22350D03*
X28230Y-21850D03*
X28230Y-21350D03*
X28230Y-20850D03*
G54D14*
X22300Y-24250D03*
X22300Y-24000D03*
X22300Y-23740D03*
X22300Y-23480D03*
X22300Y-23230D03*
X22300Y-22970D03*
X22300Y-22710D03*
X22300Y-22460D03*
X22300Y-22200D03*
X22300Y-21950D03*
X22300Y-21690D03*
X22300Y-21430D03*
X22300Y-21180D03*
X22300Y-20920D03*
X19500Y-20920D03*
X19500Y-21180D03*
X19500Y-21420D03*
X19500Y-21690D03*
X19500Y-21950D03*
X19500Y-22200D03*
X19500Y-22460D03*
X19500Y-22710D03*
X19500Y-22970D03*
X19500Y-23230D03*
X19500Y-23480D03*
X19500Y-23740D03*
X19500Y-24000D03*
X19500Y-24250D03*
G54D15*
X19350Y-19800D03*
X19950Y-19800D03*
X21850Y-19800D03*
X22450Y-19800D03*
X27950Y-19800D03*
X28550Y-19800D03*
X23950Y-19800D03*
X24550Y-19800D03*
G54D16*
X18600Y-23850D03*
X18600Y-23250D03*
X17900Y-23850D03*
X17900Y-23250D03*
X29750Y-26700D03*
X29750Y-26100D03*
G54D15*
X25950Y-19800D03*
X26550Y-19800D03*
G54D17*
X15200Y-20200D03*
X30600Y-29000D03*
X30600Y-20200D03*
X15200Y-29000D03*
G54D18*
X31400Y-26100D03*
G54D11*
X31400Y-25100D03*
X31400Y-24100D03*
X31400Y-23100D03*
G54D18*
X27200Y-28150D03*
G54D11*
X27200Y-29150D03*
X26200Y-28150D03*
X26200Y-29150D03*
X25200Y-28150D03*
X25200Y-29150D03*
G54D19*
X21000Y-29000D03*
X22000Y-29000D03*
X21000Y-26600D03*
X22000Y-26600D03*
G54D20*
X17591Y-29000D03*
X19009Y-29000D03*
G54D21*
X18100Y-20650D03*
X18100Y-21450D03*
X20950Y-19800D03*
X31400Y-22000D03*
X23200Y-19800D03*
X18100Y-26350D03*
X27100Y-26500D03*
X28100Y-26500D03*
X30050Y-25100D03*
X21900Y-25500D03*
X19600Y-25500D03*
X25100Y-26500D03*
X26100Y-26500D03*
X30050Y-24100D03*
X18100Y-25100D03*
X31400Y-27200D03*
G54D22*
X18100Y-20650D02*
X18450Y-20650D01*
X18720Y-20920D02*
X19500Y-20920D01*
X18450Y-20650D02*
X18720Y-20920D01*
X18100Y-21450D02*
X18450Y-21450D01*
X18720Y-21180D02*
X19500Y-21180D01*
X18450Y-21450D02*
X18720Y-21180D01*
X19009Y-29000D02*
X19009Y-27209D01*
X19009Y-27209D02*
X18950Y-27150D01*
X20700Y-20050D02*
X20700Y-20300D01*
X20950Y-19800D02*
X20700Y-20050D01*
X19500Y-21690D02*
X20290Y-21690D01*
X20290Y-21690D02*
X20700Y-22100D01*
X19950Y-19800D02*
X20200Y-19800D01*
X20200Y-19800D02*
X20700Y-20300D01*
X20700Y-20300D02*
X20700Y-22100D01*
X20700Y-22100D02*
X20700Y-22800D01*
X31400Y-22000D02*
X31400Y-21700D01*
X29500Y-19800D02*
X28550Y-19800D01*
X31400Y-21700D02*
X29500Y-19800D01*
X22450Y-19800D02*
X23200Y-19800D01*
X23200Y-22400D02*
X23200Y-22900D01*
X23550Y-25350D02*
X24270Y-25350D01*
X23400Y-25200D02*
X23550Y-25350D01*
X23400Y-23100D02*
X23400Y-25200D01*
X23200Y-22900D02*
X23400Y-23100D01*
X22890Y-22710D02*
X23200Y-22400D01*
X23200Y-22400D02*
X23200Y-19800D01*
X22300Y-22710D02*
X22890Y-22710D01*
X19500Y-23740D02*
X20440Y-23740D01*
X20440Y-23740D02*
X20700Y-24000D01*
X19500Y-23480D02*
X20480Y-23480D01*
X20480Y-23480D02*
X20700Y-23700D01*
X19500Y-27700D02*
X21900Y-27700D01*
X20360Y-22460D02*
X19500Y-22460D01*
X20700Y-22800D02*
X20360Y-22460D01*
X20700Y-24000D02*
X20700Y-23700D01*
X20700Y-23700D02*
X20700Y-22800D01*
X21300Y-24600D02*
X20700Y-24000D01*
X22000Y-24600D02*
X21300Y-24600D01*
X22500Y-25100D02*
X22000Y-24600D01*
X22500Y-25600D02*
X22500Y-25100D01*
X22800Y-25900D02*
X22500Y-25600D01*
X22800Y-26800D02*
X22800Y-25900D01*
X21900Y-27700D02*
X22800Y-26800D01*
X18100Y-26350D02*
X18150Y-26350D01*
X18150Y-26350D02*
X18950Y-27150D01*
X18950Y-27150D02*
X19500Y-27700D01*
X17900Y-23250D02*
X17900Y-22900D01*
X18090Y-22710D02*
X19500Y-22710D01*
X17900Y-22900D02*
X18090Y-22710D01*
X19500Y-22970D02*
X18680Y-22970D01*
X18600Y-23050D02*
X18600Y-23250D01*
X18680Y-22970D02*
X18600Y-23050D01*
X26550Y-25850D02*
X26550Y-25950D01*
X26550Y-25950D02*
X27100Y-26500D01*
X26550Y-25850D02*
X26550Y-22250D01*
X26950Y-21850D02*
X26550Y-22250D01*
X28230Y-21850D02*
X26950Y-21850D01*
X28100Y-26500D02*
X26850Y-25250D01*
X27150Y-22350D02*
X28230Y-22350D01*
X26850Y-22650D02*
X27150Y-22350D01*
X26850Y-25250D02*
X26850Y-22650D01*
X29750Y-26100D02*
X28500Y-26100D01*
X28500Y-26100D02*
X28100Y-26500D01*
X30050Y-25100D02*
X29250Y-24300D01*
X29250Y-24300D02*
X29250Y-22600D01*
X29250Y-22600D02*
X29000Y-22350D01*
X29000Y-22350D02*
X28230Y-22350D01*
X29750Y-26100D02*
X29750Y-25400D01*
X29750Y-25400D02*
X30050Y-25100D01*
X19350Y-19800D02*
X19350Y-20250D01*
X20080Y-21420D02*
X19500Y-21420D01*
X20200Y-21300D02*
X20080Y-21420D01*
X20200Y-20800D02*
X20200Y-21300D01*
X19800Y-20400D02*
X20200Y-20800D01*
X19500Y-20400D02*
X19800Y-20400D01*
X19350Y-20250D02*
X19500Y-20400D01*
X18600Y-23850D02*
X18600Y-24400D01*
X21400Y-25000D02*
X21900Y-25500D01*
X19200Y-25000D02*
X21400Y-25000D01*
X18600Y-24400D02*
X19200Y-25000D01*
X19600Y-25500D02*
X19200Y-25500D01*
X19200Y-25500D02*
X18200Y-24500D01*
X17900Y-24200D02*
X17900Y-23850D01*
X18200Y-24500D02*
X17900Y-24200D01*
X25850Y-21350D02*
X26050Y-21550D01*
X26050Y-21550D02*
X26050Y-21900D01*
X25100Y-26500D02*
X25200Y-26400D01*
X25350Y-20850D02*
X25850Y-21350D01*
X24270Y-20850D02*
X25350Y-20850D01*
X26050Y-25550D02*
X25200Y-26400D01*
X25200Y-26400D02*
X25150Y-26450D01*
X26050Y-21550D02*
X26050Y-21900D01*
X26050Y-21900D02*
X26050Y-25550D01*
X24270Y-20700D02*
X24270Y-20850D01*
X24270Y-20700D02*
X24270Y-20580D01*
X24550Y-20300D02*
X24550Y-19800D01*
X24270Y-20580D02*
X24550Y-20300D01*
X22300Y-24250D02*
X22700Y-24250D01*
X25400Y-21350D02*
X25800Y-21750D01*
X25800Y-21750D02*
X25800Y-22700D01*
X25400Y-21350D02*
X24270Y-21350D01*
X25800Y-25300D02*
X25800Y-22700D01*
X25000Y-26100D02*
X25800Y-25300D01*
X23450Y-26100D02*
X25000Y-26100D01*
X22800Y-25450D02*
X23450Y-26100D01*
X22800Y-24350D02*
X22800Y-25450D01*
X22700Y-24250D02*
X22800Y-24350D01*
X26100Y-26500D02*
X26100Y-26350D01*
X26100Y-26350D02*
X26300Y-26150D01*
X26800Y-21350D02*
X26300Y-21850D01*
X26800Y-21350D02*
X27450Y-21350D01*
X26300Y-21850D02*
X26300Y-26150D01*
X30050Y-24100D02*
X30050Y-22200D01*
X29200Y-21350D02*
X28230Y-21350D01*
X30050Y-22200D02*
X29200Y-21350D01*
X26550Y-19800D02*
X26550Y-20450D01*
X27450Y-21350D02*
X28230Y-21350D01*
X26550Y-20450D02*
X27450Y-21350D01*
X22900Y-23230D02*
X22930Y-23230D01*
X24900Y-25800D02*
X25550Y-25150D01*
X23600Y-25800D02*
X24900Y-25800D01*
X23100Y-25300D02*
X23600Y-25800D01*
X23100Y-23400D02*
X23100Y-25300D01*
X22930Y-23230D02*
X23100Y-23400D01*
X24270Y-21850D02*
X25300Y-21850D01*
X25550Y-22100D02*
X25550Y-25150D01*
X25300Y-21850D02*
X25550Y-22100D01*
X22900Y-23230D02*
X22300Y-23230D01*
X17591Y-29000D02*
X17591Y-25609D01*
X17591Y-25609D02*
X18100Y-25100D01*
X23950Y-19800D02*
X23950Y-19550D01*
X23950Y-19550D02*
X23750Y-19350D01*
X21850Y-19800D02*
X21850Y-19550D01*
X21850Y-19550D02*
X21650Y-19350D01*
X25950Y-19800D02*
X25950Y-19750D01*
X25950Y-19750D02*
X25550Y-19350D01*
X20800Y-19350D02*
X21650Y-19350D01*
X21650Y-19350D02*
X23600Y-19350D01*
X23600Y-19350D02*
X23750Y-19350D01*
X23750Y-19350D02*
X25550Y-19350D01*
X25550Y-19350D02*
X27050Y-19350D01*
X27050Y-19350D02*
X27100Y-19400D01*
X18050Y-19350D02*
X20800Y-19350D01*
X17400Y-22650D02*
X17400Y-21850D01*
X18100Y-25100D02*
X17400Y-24400D01*
X17400Y-24400D02*
X17400Y-22650D01*
X31400Y-27200D02*
X29950Y-27200D01*
X29750Y-27000D02*
X29750Y-26700D01*
X29950Y-27200D02*
X29750Y-27000D01*
X21550Y-20850D02*
X21550Y-20600D01*
X21850Y-20300D02*
X21850Y-19800D01*
X21550Y-20600D02*
X21850Y-20300D01*
X22300Y-23480D02*
X21780Y-23480D01*
X21550Y-20850D02*
X21550Y-21200D01*
X21550Y-23250D02*
X21550Y-20850D01*
X21780Y-23480D02*
X21550Y-23250D01*
X28230Y-20850D02*
X28230Y-20680D01*
X27950Y-20400D02*
X27950Y-19800D01*
X28230Y-20680D02*
X27950Y-20400D01*
X27500Y-19800D02*
X27950Y-19800D01*
X27100Y-19400D02*
X27500Y-19800D01*
X17400Y-21850D02*
X17350Y-21800D01*
X17100Y-21550D02*
X17100Y-20300D01*
X17100Y-20300D02*
X18050Y-19350D01*
X17100Y-21550D02*
X17350Y-21800D01*
X18450Y-22200D02*
X17850Y-22200D01*
X17400Y-22650D02*
X17850Y-22200D01*
X18100Y-21950D02*
X18700Y-21950D01*
X17850Y-22200D02*
X18100Y-21950D01*
X19500Y-22200D02*
X18450Y-22200D01*
X19500Y-21950D02*
X18700Y-21950D01*
G54D10*
G36*
X16419Y-24599D02*
X16393Y-24610D01*
X16303Y-24669D01*
X16256Y-24715D01*
X16215Y-24674D01*
X16125Y-24613D01*
X16093Y-24600D01*
X16112Y-24593D01*
X16203Y-24535D01*
X16256Y-24484D01*
X16291Y-24520D01*
X16380Y-24582D01*
X16419Y-24599D01*
X16419Y-24599D01*
G37*
G54D23*
X16419Y-24599D02*
X16393Y-24610D01*
X16303Y-24669D01*
X16256Y-24715D01*
X16215Y-24674D01*
X16125Y-24613D01*
X16093Y-24600D01*
X16112Y-24593D01*
X16203Y-24535D01*
X16256Y-24484D01*
X16291Y-24520D01*
X16380Y-24582D01*
X16419Y-24599D01*
G54D10*
G36*
X18412Y-21050D02*
X18398Y-21064D01*
X18376Y-21050D01*
X18399Y-21036D01*
X18412Y-21050D01*
X18412Y-21050D01*
G37*
G54D23*
X18412Y-21050D02*
X18398Y-21064D01*
X18376Y-21050D01*
X18399Y-21036D01*
X18412Y-21050D01*
G54D10*
G36*
X18699Y-28434D02*
X18472Y-28434D01*
X18424Y-28444D01*
X18379Y-28463D01*
X18338Y-28490D01*
X18303Y-28524D01*
X18300Y-28529D01*
X18297Y-28526D01*
X18263Y-28491D01*
X18222Y-28464D01*
X18177Y-28445D01*
X18129Y-28435D01*
X18080Y-28434D01*
X17900Y-28434D01*
X17900Y-26793D01*
X17949Y-26814D01*
X18042Y-26835D01*
X18137Y-26837D01*
X18190Y-26827D01*
X18699Y-27337D01*
X18699Y-28434D01*
X18699Y-28434D01*
G37*
G54D23*
X18699Y-28434D02*
X18472Y-28434D01*
X18424Y-28444D01*
X18379Y-28463D01*
X18338Y-28490D01*
X18303Y-28524D01*
X18300Y-28529D01*
X18297Y-28526D01*
X18263Y-28491D01*
X18222Y-28464D01*
X18177Y-28445D01*
X18129Y-28435D01*
X18080Y-28434D01*
X17900Y-28434D01*
X17900Y-26793D01*
X17949Y-26814D01*
X18042Y-26835D01*
X18137Y-26837D01*
X18190Y-26827D01*
X18699Y-27337D01*
X18699Y-28434D01*
G54D10*
G36*
X19040Y-20250D02*
X18550Y-20250D01*
X18550Y-20358D01*
X18541Y-20356D01*
X18514Y-20347D01*
X18512Y-20347D01*
X18511Y-20347D01*
X18482Y-20344D01*
X18480Y-20343D01*
X18478Y-20341D01*
X18411Y-20273D01*
X18332Y-20220D01*
X18244Y-20183D01*
X18151Y-20164D01*
X18055Y-20163D01*
X17962Y-20181D01*
X17873Y-20217D01*
X17793Y-20269D01*
X17725Y-20335D01*
X17671Y-20414D01*
X17634Y-20502D01*
X17614Y-20595D01*
X17613Y-20690D01*
X17630Y-20784D01*
X17665Y-20873D01*
X17717Y-20953D01*
X17783Y-21022D01*
X17823Y-21049D01*
X17793Y-21069D01*
X17725Y-21135D01*
X17671Y-21214D01*
X17634Y-21302D01*
X17614Y-21395D01*
X17613Y-21490D01*
X17630Y-21584D01*
X17665Y-21673D01*
X17717Y-21753D01*
X17783Y-21822D01*
X17787Y-21825D01*
X17709Y-21903D01*
X17709Y-21850D01*
X17706Y-21821D01*
X17703Y-21793D01*
X17703Y-21791D01*
X17703Y-21789D01*
X17694Y-21762D01*
X17686Y-21735D01*
X17686Y-21733D01*
X17685Y-21732D01*
X17672Y-21707D01*
X17659Y-21681D01*
X17658Y-21680D01*
X17657Y-21678D01*
X17639Y-21656D01*
X17621Y-21634D01*
X17619Y-21632D01*
X17619Y-21632D01*
X17619Y-21632D01*
X17618Y-21631D01*
X17568Y-21581D01*
X17568Y-21581D01*
X17409Y-21421D01*
X17409Y-20428D01*
X18178Y-19659D01*
X18974Y-19659D01*
X18974Y-20049D01*
X18984Y-20097D01*
X19003Y-20142D01*
X19030Y-20183D01*
X19040Y-20194D01*
X19040Y-20250D01*
X19040Y-20250D01*
G37*
G54D23*
X19040Y-20250D02*
X18550Y-20250D01*
X18550Y-20358D01*
X18541Y-20356D01*
X18514Y-20347D01*
X18512Y-20347D01*
X18511Y-20347D01*
X18482Y-20344D01*
X18480Y-20343D01*
X18478Y-20341D01*
X18411Y-20273D01*
X18332Y-20220D01*
X18244Y-20183D01*
X18151Y-20164D01*
X18055Y-20163D01*
X17962Y-20181D01*
X17873Y-20217D01*
X17793Y-20269D01*
X17725Y-20335D01*
X17671Y-20414D01*
X17634Y-20502D01*
X17614Y-20595D01*
X17613Y-20690D01*
X17630Y-20784D01*
X17665Y-20873D01*
X17717Y-20953D01*
X17783Y-21022D01*
X17823Y-21049D01*
X17793Y-21069D01*
X17725Y-21135D01*
X17671Y-21214D01*
X17634Y-21302D01*
X17614Y-21395D01*
X17613Y-21490D01*
X17630Y-21584D01*
X17665Y-21673D01*
X17717Y-21753D01*
X17783Y-21822D01*
X17787Y-21825D01*
X17709Y-21903D01*
X17709Y-21850D01*
X17706Y-21821D01*
X17703Y-21793D01*
X17703Y-21791D01*
X17703Y-21789D01*
X17694Y-21762D01*
X17686Y-21735D01*
X17686Y-21733D01*
X17685Y-21732D01*
X17672Y-21707D01*
X17659Y-21681D01*
X17658Y-21680D01*
X17657Y-21678D01*
X17639Y-21656D01*
X17621Y-21634D01*
X17619Y-21632D01*
X17619Y-21632D01*
X17619Y-21632D01*
X17618Y-21631D01*
X17568Y-21581D01*
X17568Y-21581D01*
X17409Y-21421D01*
X17409Y-20428D01*
X18178Y-19659D01*
X18974Y-19659D01*
X18974Y-20049D01*
X18984Y-20097D01*
X19003Y-20142D01*
X19030Y-20183D01*
X19040Y-20194D01*
X19040Y-20250D01*
G54D10*
G36*
X20212Y-20250D02*
X20185Y-20250D01*
X20192Y-20246D01*
X20203Y-20240D01*
X20212Y-20250D01*
X20212Y-20250D01*
G37*
G54D23*
X20212Y-20250D02*
X20185Y-20250D01*
X20192Y-20246D01*
X20203Y-20240D01*
X20212Y-20250D01*
G54D10*
G36*
X21529Y-20183D02*
X21462Y-20250D01*
X21134Y-20250D01*
X21170Y-20236D01*
X21250Y-20185D01*
X21319Y-20119D01*
X21374Y-20041D01*
X21413Y-19954D01*
X21434Y-19861D01*
X21436Y-19752D01*
X21417Y-19659D01*
X21474Y-19659D01*
X21474Y-20049D01*
X21484Y-20097D01*
X21503Y-20142D01*
X21529Y-20183D01*
X21529Y-20183D01*
G37*
G54D23*
X21529Y-20183D02*
X21462Y-20250D01*
X21134Y-20250D01*
X21170Y-20236D01*
X21250Y-20185D01*
X21319Y-20119D01*
X21374Y-20041D01*
X21413Y-19954D01*
X21434Y-19861D01*
X21436Y-19752D01*
X21417Y-19659D01*
X21474Y-19659D01*
X21474Y-20049D01*
X21484Y-20097D01*
X21503Y-20142D01*
X21529Y-20183D01*
G54D10*
G36*
X21983Y-25020D02*
X21951Y-25014D01*
X21855Y-25013D01*
X21851Y-25014D01*
X21746Y-24909D01*
X21871Y-24909D01*
X21983Y-25020D01*
X21983Y-25020D01*
G37*
G54D23*
X21983Y-25020D02*
X21951Y-25014D01*
X21855Y-25013D01*
X21851Y-25014D01*
X21746Y-24909D01*
X21871Y-24909D01*
X21983Y-25020D01*
G54D10*
G36*
X22215Y-20250D02*
X22159Y-20250D01*
X22159Y-20212D01*
X22164Y-20218D01*
X22205Y-20245D01*
X22215Y-20250D01*
X22215Y-20250D01*
G37*
G54D23*
X22215Y-20250D02*
X22159Y-20250D01*
X22159Y-20212D01*
X22164Y-20218D01*
X22205Y-20245D01*
X22215Y-20250D01*
G54D10*
G36*
X22490Y-26290D02*
X22451Y-26231D01*
X22371Y-26150D01*
X22277Y-26087D01*
X22172Y-26043D01*
X22060Y-26020D01*
X21947Y-26019D01*
X21835Y-26040D01*
X21729Y-26083D01*
X21634Y-26145D01*
X21553Y-26225D01*
X21499Y-26303D01*
X21451Y-26231D01*
X21371Y-26150D01*
X21277Y-26087D01*
X21172Y-26043D01*
X21060Y-26020D01*
X20947Y-26019D01*
X20835Y-26040D01*
X20729Y-26083D01*
X20634Y-26145D01*
X20553Y-26225D01*
X20489Y-26319D01*
X20444Y-26423D01*
X20420Y-26535D01*
X20419Y-26648D01*
X20439Y-26760D01*
X20481Y-26866D01*
X20543Y-26962D01*
X20622Y-27043D01*
X20715Y-27108D01*
X20819Y-27154D01*
X20930Y-27178D01*
X21044Y-27181D01*
X21156Y-27161D01*
X21262Y-27120D01*
X21358Y-27059D01*
X21441Y-26980D01*
X21500Y-26896D01*
X21543Y-26962D01*
X21622Y-27043D01*
X21715Y-27108D01*
X21819Y-27154D01*
X21930Y-27178D01*
X21983Y-27179D01*
X21771Y-27390D01*
X19628Y-27390D01*
X19227Y-26990D01*
X19168Y-26931D01*
X19168Y-26931D01*
X18585Y-26348D01*
X18586Y-26302D01*
X18567Y-26208D01*
X18531Y-26120D01*
X18478Y-26041D01*
X18411Y-25973D01*
X18332Y-25920D01*
X18244Y-25883D01*
X18151Y-25864D01*
X18055Y-25863D01*
X17962Y-25881D01*
X17900Y-25906D01*
X17900Y-25737D01*
X18051Y-25585D01*
X18137Y-25587D01*
X18231Y-25570D01*
X18320Y-25536D01*
X18400Y-25485D01*
X18469Y-25419D01*
X18524Y-25341D01*
X18549Y-25286D01*
X18981Y-25718D01*
X19003Y-25736D01*
X19025Y-25755D01*
X19026Y-25755D01*
X19028Y-25756D01*
X19053Y-25770D01*
X19078Y-25784D01*
X19079Y-25784D01*
X19081Y-25785D01*
X19108Y-25793D01*
X19135Y-25802D01*
X19137Y-25802D01*
X19138Y-25802D01*
X19167Y-25805D01*
X19195Y-25809D01*
X19198Y-25809D01*
X19198Y-25809D01*
X19198Y-25809D01*
X19200Y-25809D01*
X19222Y-25809D01*
X19283Y-25872D01*
X19361Y-25926D01*
X19449Y-25964D01*
X19542Y-25985D01*
X19637Y-25987D01*
X19731Y-25970D01*
X19820Y-25936D01*
X19900Y-25885D01*
X19969Y-25819D01*
X20024Y-25741D01*
X20063Y-25654D01*
X20084Y-25561D01*
X20086Y-25452D01*
X20067Y-25358D01*
X20047Y-25309D01*
X21271Y-25309D01*
X21414Y-25451D01*
X21413Y-25540D01*
X21430Y-25634D01*
X21465Y-25723D01*
X21517Y-25803D01*
X21583Y-25872D01*
X21661Y-25926D01*
X21749Y-25964D01*
X21842Y-25985D01*
X21937Y-25987D01*
X22031Y-25970D01*
X22120Y-25936D01*
X22200Y-25885D01*
X22269Y-25819D01*
X22275Y-25811D01*
X22278Y-25815D01*
X22280Y-25817D01*
X22280Y-25817D01*
X22280Y-25817D01*
X22281Y-25818D01*
X22490Y-26028D01*
X22490Y-26290D01*
X22490Y-26290D01*
G37*
G54D23*
X22490Y-26290D02*
X22451Y-26231D01*
X22371Y-26150D01*
X22277Y-26087D01*
X22172Y-26043D01*
X22060Y-26020D01*
X21947Y-26019D01*
X21835Y-26040D01*
X21729Y-26083D01*
X21634Y-26145D01*
X21553Y-26225D01*
X21499Y-26303D01*
X21451Y-26231D01*
X21371Y-26150D01*
X21277Y-26087D01*
X21172Y-26043D01*
X21060Y-26020D01*
X20947Y-26019D01*
X20835Y-26040D01*
X20729Y-26083D01*
X20634Y-26145D01*
X20553Y-26225D01*
X20489Y-26319D01*
X20444Y-26423D01*
X20420Y-26535D01*
X20419Y-26648D01*
X20439Y-26760D01*
X20481Y-26866D01*
X20543Y-26962D01*
X20622Y-27043D01*
X20715Y-27108D01*
X20819Y-27154D01*
X20930Y-27178D01*
X21044Y-27181D01*
X21156Y-27161D01*
X21262Y-27120D01*
X21358Y-27059D01*
X21441Y-26980D01*
X21500Y-26896D01*
X21543Y-26962D01*
X21622Y-27043D01*
X21715Y-27108D01*
X21819Y-27154D01*
X21930Y-27178D01*
X21983Y-27179D01*
X21771Y-27390D01*
X19628Y-27390D01*
X19227Y-26990D01*
X19168Y-26931D01*
X19168Y-26931D01*
X18585Y-26348D01*
X18586Y-26302D01*
X18567Y-26208D01*
X18531Y-26120D01*
X18478Y-26041D01*
X18411Y-25973D01*
X18332Y-25920D01*
X18244Y-25883D01*
X18151Y-25864D01*
X18055Y-25863D01*
X17962Y-25881D01*
X17900Y-25906D01*
X17900Y-25737D01*
X18051Y-25585D01*
X18137Y-25587D01*
X18231Y-25570D01*
X18320Y-25536D01*
X18400Y-25485D01*
X18469Y-25419D01*
X18524Y-25341D01*
X18549Y-25286D01*
X18981Y-25718D01*
X19003Y-25736D01*
X19025Y-25755D01*
X19026Y-25755D01*
X19028Y-25756D01*
X19053Y-25770D01*
X19078Y-25784D01*
X19079Y-25784D01*
X19081Y-25785D01*
X19108Y-25793D01*
X19135Y-25802D01*
X19137Y-25802D01*
X19138Y-25802D01*
X19167Y-25805D01*
X19195Y-25809D01*
X19198Y-25809D01*
X19198Y-25809D01*
X19198Y-25809D01*
X19200Y-25809D01*
X19222Y-25809D01*
X19283Y-25872D01*
X19361Y-25926D01*
X19449Y-25964D01*
X19542Y-25985D01*
X19637Y-25987D01*
X19731Y-25970D01*
X19820Y-25936D01*
X19900Y-25885D01*
X19969Y-25819D01*
X20024Y-25741D01*
X20063Y-25654D01*
X20084Y-25561D01*
X20086Y-25452D01*
X20067Y-25358D01*
X20047Y-25309D01*
X21271Y-25309D01*
X21414Y-25451D01*
X21413Y-25540D01*
X21430Y-25634D01*
X21465Y-25723D01*
X21517Y-25803D01*
X21583Y-25872D01*
X21661Y-25926D01*
X21749Y-25964D01*
X21842Y-25985D01*
X21937Y-25987D01*
X22031Y-25970D01*
X22120Y-25936D01*
X22200Y-25885D01*
X22269Y-25819D01*
X22275Y-25811D01*
X22278Y-25815D01*
X22280Y-25817D01*
X22280Y-25817D01*
X22280Y-25817D01*
X22281Y-25818D01*
X22490Y-26028D01*
X22490Y-26290D01*
G54D10*
G36*
X22890Y-20250D02*
X22685Y-20250D01*
X22692Y-20246D01*
X22733Y-20219D01*
X22768Y-20185D01*
X22795Y-20144D01*
X22810Y-20109D01*
X22822Y-20109D01*
X22883Y-20172D01*
X22890Y-20177D01*
X22890Y-20250D01*
X22890Y-20250D01*
G37*
G54D23*
X22890Y-20250D02*
X22685Y-20250D01*
X22692Y-20246D01*
X22733Y-20219D01*
X22768Y-20185D01*
X22795Y-20144D01*
X22810Y-20109D01*
X22822Y-20109D01*
X22883Y-20172D01*
X22890Y-20177D01*
X22890Y-20250D01*
G54D10*
G36*
X23715Y-20250D02*
X23509Y-20250D01*
X23509Y-20177D01*
X23569Y-20119D01*
X23584Y-20098D01*
X23603Y-20142D01*
X23630Y-20183D01*
X23664Y-20218D01*
X23705Y-20245D01*
X23715Y-20250D01*
X23715Y-20250D01*
G37*
G54D23*
X23715Y-20250D02*
X23509Y-20250D01*
X23509Y-20177D01*
X23569Y-20119D01*
X23584Y-20098D01*
X23603Y-20142D01*
X23630Y-20183D01*
X23664Y-20218D01*
X23705Y-20245D01*
X23715Y-20250D01*
G54D10*
G36*
X25715Y-20250D02*
X24859Y-20250D01*
X24859Y-20194D01*
X24868Y-20185D01*
X24895Y-20144D01*
X24914Y-20099D01*
X24924Y-20051D01*
X24925Y-20002D01*
X24925Y-19659D01*
X25421Y-19659D01*
X25574Y-19811D01*
X25574Y-20049D01*
X25584Y-20097D01*
X25603Y-20142D01*
X25630Y-20183D01*
X25664Y-20218D01*
X25705Y-20245D01*
X25715Y-20250D01*
X25715Y-20250D01*
G37*
G54D23*
X25715Y-20250D02*
X24859Y-20250D01*
X24859Y-20194D01*
X24868Y-20185D01*
X24895Y-20144D01*
X24914Y-20099D01*
X24924Y-20051D01*
X24925Y-20002D01*
X24925Y-19659D01*
X25421Y-19659D01*
X25574Y-19811D01*
X25574Y-20049D01*
X25584Y-20097D01*
X25603Y-20142D01*
X25630Y-20183D01*
X25664Y-20218D01*
X25705Y-20245D01*
X25715Y-20250D01*
G54D10*
G36*
X25969Y-28649D02*
X25943Y-28660D01*
X25853Y-28719D01*
X25776Y-28794D01*
X25715Y-28883D01*
X25700Y-28920D01*
X25687Y-28890D01*
X25628Y-28800D01*
X25552Y-28724D01*
X25462Y-28663D01*
X25430Y-28650D01*
X25449Y-28643D01*
X25540Y-28585D01*
X25618Y-28511D01*
X25680Y-28422D01*
X25699Y-28380D01*
X25708Y-28402D01*
X25766Y-28493D01*
X25841Y-28570D01*
X25930Y-28632D01*
X25969Y-28649D01*
X25969Y-28649D01*
G37*
G54D23*
X25969Y-28649D02*
X25943Y-28660D01*
X25853Y-28719D01*
X25776Y-28794D01*
X25715Y-28883D01*
X25700Y-28920D01*
X25687Y-28890D01*
X25628Y-28800D01*
X25552Y-28724D01*
X25462Y-28663D01*
X25430Y-28650D01*
X25449Y-28643D01*
X25540Y-28585D01*
X25618Y-28511D01*
X25680Y-28422D01*
X25699Y-28380D01*
X25708Y-28402D01*
X25766Y-28493D01*
X25841Y-28570D01*
X25930Y-28632D01*
X25969Y-28649D01*
G54D10*
G36*
X26240Y-20250D02*
X26185Y-20250D01*
X26192Y-20246D01*
X26233Y-20219D01*
X26240Y-20212D01*
X26240Y-20250D01*
X26240Y-20250D01*
G37*
G54D23*
X26240Y-20250D02*
X26185Y-20250D01*
X26192Y-20246D01*
X26233Y-20219D01*
X26240Y-20212D01*
X26240Y-20250D01*
G54D10*
G36*
X26883Y-28699D02*
X26853Y-28719D01*
X26776Y-28794D01*
X26715Y-28883D01*
X26700Y-28920D01*
X26687Y-28890D01*
X26628Y-28800D01*
X26552Y-28724D01*
X26462Y-28663D01*
X26430Y-28650D01*
X26449Y-28643D01*
X26540Y-28585D01*
X26618Y-28511D01*
X26649Y-28466D01*
X26649Y-28474D01*
X26659Y-28522D01*
X26678Y-28567D01*
X26705Y-28608D01*
X26739Y-28643D01*
X26780Y-28670D01*
X26825Y-28689D01*
X26873Y-28699D01*
X26883Y-28699D01*
X26883Y-28699D01*
G37*
G54D23*
X26883Y-28699D02*
X26853Y-28719D01*
X26776Y-28794D01*
X26715Y-28883D01*
X26700Y-28920D01*
X26687Y-28890D01*
X26628Y-28800D01*
X26552Y-28724D01*
X26462Y-28663D01*
X26430Y-28650D01*
X26449Y-28643D01*
X26540Y-28585D01*
X26618Y-28511D01*
X26649Y-28466D01*
X26649Y-28474D01*
X26659Y-28522D01*
X26678Y-28567D01*
X26705Y-28608D01*
X26739Y-28643D01*
X26780Y-28670D01*
X26825Y-28689D01*
X26873Y-28699D01*
X26883Y-28699D01*
G54D10*
G36*
X27183Y-26020D02*
X27151Y-26014D01*
X27055Y-26013D01*
X27051Y-26014D01*
X27037Y-26000D01*
X27162Y-26000D01*
X27183Y-26020D01*
X27183Y-26020D01*
G37*
G54D23*
X27183Y-26020D02*
X27151Y-26014D01*
X27055Y-26013D01*
X27051Y-26014D01*
X27037Y-26000D01*
X27162Y-26000D01*
X27183Y-26020D01*
G54D10*
G36*
X27640Y-20250D02*
X26859Y-20250D01*
X26859Y-20194D01*
X26868Y-20185D01*
X26895Y-20144D01*
X26914Y-20099D01*
X26924Y-20051D01*
X26925Y-20002D01*
X26925Y-19662D01*
X27281Y-20018D01*
X27303Y-20036D01*
X27325Y-20055D01*
X27326Y-20055D01*
X27328Y-20056D01*
X27353Y-20070D01*
X27378Y-20084D01*
X27379Y-20084D01*
X27381Y-20085D01*
X27408Y-20093D01*
X27435Y-20102D01*
X27437Y-20102D01*
X27438Y-20102D01*
X27467Y-20105D01*
X27495Y-20109D01*
X27498Y-20109D01*
X27498Y-20109D01*
X27498Y-20109D01*
X27500Y-20109D01*
X27589Y-20109D01*
X27603Y-20142D01*
X27630Y-20183D01*
X27640Y-20194D01*
X27640Y-20250D01*
X27640Y-20250D01*
G37*
G54D23*
X27640Y-20250D02*
X26859Y-20250D01*
X26859Y-20194D01*
X26868Y-20185D01*
X26895Y-20144D01*
X26914Y-20099D01*
X26924Y-20051D01*
X26925Y-20002D01*
X26925Y-19662D01*
X27281Y-20018D01*
X27303Y-20036D01*
X27325Y-20055D01*
X27326Y-20055D01*
X27328Y-20056D01*
X27353Y-20070D01*
X27378Y-20084D01*
X27379Y-20084D01*
X27381Y-20085D01*
X27408Y-20093D01*
X27435Y-20102D01*
X27437Y-20102D01*
X27438Y-20102D01*
X27467Y-20105D01*
X27495Y-20109D01*
X27498Y-20109D01*
X27498Y-20109D01*
X27498Y-20109D01*
X27500Y-20109D01*
X27589Y-20109D01*
X27603Y-20142D01*
X27630Y-20183D01*
X27640Y-20194D01*
X27640Y-20250D01*
G54D10*
G36*
X28162Y-26000D02*
X28148Y-26014D01*
X28055Y-26013D01*
X28051Y-26014D01*
X28037Y-26000D01*
X28162Y-26000D01*
X28162Y-26000D01*
G37*
G54D23*
X28162Y-26000D02*
X28148Y-26014D01*
X28055Y-26013D01*
X28051Y-26014D01*
X28037Y-26000D01*
X28162Y-26000D01*
G54D10*
G36*
X28315Y-20250D02*
X28259Y-20250D01*
X28259Y-20212D01*
X28264Y-20218D01*
X28305Y-20245D01*
X28315Y-20250D01*
X28315Y-20250D01*
G37*
G54D23*
X28315Y-20250D02*
X28259Y-20250D01*
X28259Y-20212D01*
X28264Y-20218D01*
X28305Y-20245D01*
X28315Y-20250D01*
G54D10*
G36*
X29564Y-25148D02*
X29531Y-25181D01*
X29513Y-25203D01*
X29494Y-25225D01*
X29494Y-25226D01*
X29493Y-25228D01*
X29479Y-25253D01*
X29465Y-25278D01*
X29465Y-25279D01*
X29464Y-25281D01*
X29456Y-25308D01*
X29447Y-25335D01*
X29447Y-25337D01*
X29447Y-25338D01*
X29444Y-25367D01*
X29440Y-25395D01*
X29440Y-25398D01*
X29440Y-25398D01*
X29440Y-25398D01*
X29440Y-25400D01*
X29440Y-25739D01*
X29407Y-25753D01*
X29366Y-25780D01*
X29355Y-25790D01*
X29200Y-25790D01*
X29200Y-24687D01*
X29564Y-25051D01*
X29563Y-25140D01*
X29564Y-25148D01*
X29564Y-25148D01*
G37*
G54D23*
X29564Y-25148D02*
X29531Y-25181D01*
X29513Y-25203D01*
X29494Y-25225D01*
X29494Y-25226D01*
X29493Y-25228D01*
X29479Y-25253D01*
X29465Y-25278D01*
X29465Y-25279D01*
X29464Y-25281D01*
X29456Y-25308D01*
X29447Y-25335D01*
X29447Y-25337D01*
X29447Y-25338D01*
X29444Y-25367D01*
X29440Y-25395D01*
X29440Y-25398D01*
X29440Y-25398D01*
X29440Y-25398D01*
X29440Y-25400D01*
X29440Y-25739D01*
X29407Y-25753D01*
X29366Y-25780D01*
X29355Y-25790D01*
X29200Y-25790D01*
X29200Y-24687D01*
X29564Y-25051D01*
X29563Y-25140D01*
X29564Y-25148D01*
G54D10*
G36*
X29740Y-23722D02*
X29675Y-23785D01*
X29621Y-23864D01*
X29584Y-23952D01*
X29564Y-24045D01*
X29563Y-24140D01*
X29571Y-24183D01*
X29559Y-24171D01*
X29559Y-22600D01*
X29556Y-22571D01*
X29553Y-22543D01*
X29553Y-22541D01*
X29553Y-22539D01*
X29544Y-22512D01*
X29536Y-22485D01*
X29536Y-22483D01*
X29535Y-22482D01*
X29522Y-22457D01*
X29509Y-22431D01*
X29508Y-22430D01*
X29507Y-22428D01*
X29489Y-22406D01*
X29471Y-22384D01*
X29469Y-22382D01*
X29469Y-22382D01*
X29469Y-22382D01*
X29468Y-22381D01*
X29218Y-22131D01*
X29200Y-22116D01*
X29200Y-21787D01*
X29740Y-22328D01*
X29740Y-23722D01*
X29740Y-23722D01*
G37*
G54D23*
X29740Y-23722D02*
X29675Y-23785D01*
X29621Y-23864D01*
X29584Y-23952D01*
X29564Y-24045D01*
X29563Y-24140D01*
X29571Y-24183D01*
X29559Y-24171D01*
X29559Y-22600D01*
X29556Y-22571D01*
X29553Y-22543D01*
X29553Y-22541D01*
X29553Y-22539D01*
X29544Y-22512D01*
X29536Y-22485D01*
X29536Y-22483D01*
X29535Y-22482D01*
X29522Y-22457D01*
X29509Y-22431D01*
X29508Y-22430D01*
X29507Y-22428D01*
X29489Y-22406D01*
X29471Y-22384D01*
X29469Y-22382D01*
X29469Y-22382D01*
X29469Y-22382D01*
X29468Y-22381D01*
X29218Y-22131D01*
X29200Y-22116D01*
X29200Y-21787D01*
X29740Y-22328D01*
X29740Y-23722D01*
G54D10*
G36*
X31950Y-24045D02*
X31929Y-23940D01*
X31887Y-23840D01*
X31828Y-23750D01*
X31752Y-23674D01*
X31662Y-23613D01*
X31630Y-23600D01*
X31649Y-23593D01*
X31740Y-23535D01*
X31818Y-23461D01*
X31880Y-23372D01*
X31924Y-23274D01*
X31948Y-23169D01*
X31950Y-23047D01*
X31950Y-24045D01*
X31950Y-24045D01*
G37*
G54D23*
X31950Y-24045D02*
X31929Y-23940D01*
X31887Y-23840D01*
X31828Y-23750D01*
X31752Y-23674D01*
X31662Y-23613D01*
X31630Y-23600D01*
X31649Y-23593D01*
X31740Y-23535D01*
X31818Y-23461D01*
X31880Y-23372D01*
X31924Y-23274D01*
X31948Y-23169D01*
X31950Y-23047D01*
X31950Y-24045D01*
G54D10*
G36*
X31950Y-25045D02*
X31929Y-24940D01*
X31887Y-24840D01*
X31828Y-24750D01*
X31752Y-24674D01*
X31662Y-24613D01*
X31630Y-24600D01*
X31649Y-24593D01*
X31740Y-24535D01*
X31818Y-24461D01*
X31880Y-24372D01*
X31924Y-24274D01*
X31948Y-24169D01*
X31950Y-24047D01*
X31950Y-25045D01*
X31950Y-25045D01*
G37*
G54D23*
X31950Y-25045D02*
X31929Y-24940D01*
X31887Y-24840D01*
X31828Y-24750D01*
X31752Y-24674D01*
X31662Y-24613D01*
X31630Y-24600D01*
X31649Y-24593D01*
X31740Y-24535D01*
X31818Y-24461D01*
X31880Y-24372D01*
X31924Y-24274D01*
X31948Y-24169D01*
X31950Y-24047D01*
X31950Y-25045D01*
G54D10*
G36*
X31950Y-25775D02*
X31940Y-25727D01*
X31921Y-25682D01*
X31894Y-25641D01*
X31860Y-25606D01*
X31819Y-25579D01*
X31774Y-25560D01*
X31726Y-25550D01*
X31717Y-25550D01*
X31740Y-25535D01*
X31818Y-25461D01*
X31880Y-25372D01*
X31924Y-25274D01*
X31948Y-25169D01*
X31950Y-25047D01*
X31950Y-25775D01*
X31950Y-25775D01*
G37*
G54D23*
X31950Y-25775D02*
X31940Y-25727D01*
X31921Y-25682D01*
X31894Y-25641D01*
X31860Y-25606D01*
X31819Y-25579D01*
X31774Y-25560D01*
X31726Y-25550D01*
X31717Y-25550D01*
X31740Y-25535D01*
X31818Y-25461D01*
X31880Y-25372D01*
X31924Y-25274D01*
X31948Y-25169D01*
X31950Y-25047D01*
X31950Y-25775D01*
G54D10*
G36*
X31950Y-30350D02*
X31886Y-30350D01*
X31886Y-27152D01*
X31867Y-27058D01*
X31831Y-26970D01*
X31778Y-26891D01*
X31711Y-26823D01*
X31632Y-26770D01*
X31544Y-26733D01*
X31451Y-26714D01*
X31355Y-26713D01*
X31262Y-26731D01*
X31173Y-26767D01*
X31093Y-26819D01*
X31025Y-26885D01*
X31022Y-26890D01*
X30216Y-26890D01*
X30224Y-26851D01*
X30225Y-26802D01*
X30225Y-26550D01*
X30215Y-26502D01*
X30196Y-26457D01*
X30169Y-26416D01*
X30153Y-26400D01*
X30168Y-26385D01*
X30195Y-26344D01*
X30214Y-26299D01*
X30224Y-26251D01*
X30225Y-26202D01*
X30225Y-25950D01*
X30215Y-25902D01*
X30196Y-25857D01*
X30169Y-25816D01*
X30135Y-25781D01*
X30094Y-25754D01*
X30059Y-25739D01*
X30059Y-25586D01*
X30087Y-25587D01*
X30181Y-25570D01*
X30270Y-25536D01*
X30350Y-25485D01*
X30419Y-25419D01*
X30474Y-25341D01*
X30513Y-25254D01*
X30534Y-25161D01*
X30536Y-25052D01*
X30517Y-24958D01*
X30481Y-24870D01*
X30428Y-24791D01*
X30361Y-24723D01*
X30282Y-24670D01*
X30194Y-24633D01*
X30101Y-24614D01*
X30005Y-24613D01*
X30001Y-24614D01*
X29966Y-24579D01*
X29992Y-24585D01*
X30087Y-24587D01*
X30181Y-24570D01*
X30270Y-24536D01*
X30350Y-24485D01*
X30419Y-24419D01*
X30474Y-24341D01*
X30513Y-24254D01*
X30534Y-24161D01*
X30536Y-24052D01*
X30517Y-23958D01*
X30481Y-23870D01*
X30428Y-23791D01*
X30361Y-23723D01*
X30359Y-23721D01*
X30359Y-22200D01*
X30356Y-22171D01*
X30353Y-22143D01*
X30353Y-22141D01*
X30353Y-22139D01*
X30344Y-22112D01*
X30336Y-22085D01*
X30336Y-22083D01*
X30335Y-22082D01*
X30322Y-22057D01*
X30309Y-22031D01*
X30308Y-22030D01*
X30307Y-22028D01*
X30289Y-22006D01*
X30271Y-21984D01*
X30269Y-21982D01*
X30269Y-21982D01*
X30269Y-21982D01*
X30268Y-21981D01*
X29418Y-21131D01*
X29396Y-21113D01*
X29374Y-21094D01*
X29373Y-21094D01*
X29371Y-21093D01*
X29346Y-21079D01*
X29321Y-21065D01*
X29320Y-21065D01*
X29318Y-21064D01*
X29291Y-21056D01*
X29264Y-21047D01*
X29262Y-21047D01*
X29261Y-21047D01*
X29232Y-21044D01*
X29204Y-21040D01*
X29201Y-21040D01*
X29201Y-21040D01*
X29201Y-21040D01*
X29200Y-21040D01*
X29200Y-20250D01*
X28785Y-20250D01*
X28792Y-20246D01*
X28833Y-20219D01*
X28868Y-20185D01*
X28895Y-20144D01*
X28910Y-20109D01*
X29371Y-20109D01*
X29563Y-20300D01*
X29572Y-20347D01*
X29578Y-20408D01*
X29590Y-20447D01*
X29597Y-20487D01*
X29620Y-20544D01*
X29638Y-20603D01*
X29658Y-20640D01*
X29672Y-20676D01*
X29700Y-20719D01*
X29728Y-20771D01*
X29737Y-20777D01*
X29783Y-20847D01*
X29924Y-20993D01*
X30022Y-21062D01*
X30028Y-21071D01*
X30061Y-21088D01*
X30091Y-21109D01*
X30151Y-21135D01*
X30208Y-21166D01*
X30244Y-21176D01*
X30277Y-21191D01*
X30341Y-21205D01*
X30403Y-21223D01*
X30440Y-21227D01*
X30476Y-21235D01*
X30498Y-21235D01*
X30994Y-21731D01*
X30971Y-21764D01*
X30934Y-21852D01*
X30914Y-21945D01*
X30913Y-22040D01*
X30930Y-22134D01*
X30965Y-22223D01*
X31017Y-22303D01*
X31083Y-22372D01*
X31161Y-22426D01*
X31249Y-22464D01*
X31342Y-22485D01*
X31437Y-22487D01*
X31531Y-22470D01*
X31620Y-22436D01*
X31700Y-22385D01*
X31769Y-22319D01*
X31824Y-22241D01*
X31863Y-22154D01*
X31884Y-22061D01*
X31886Y-21952D01*
X31867Y-21858D01*
X31831Y-21770D01*
X31778Y-21691D01*
X31711Y-21623D01*
X31694Y-21612D01*
X31686Y-21585D01*
X31686Y-21583D01*
X31685Y-21582D01*
X31672Y-21557D01*
X31659Y-21531D01*
X31658Y-21530D01*
X31657Y-21528D01*
X31639Y-21506D01*
X31621Y-21484D01*
X31619Y-21482D01*
X31619Y-21482D01*
X31619Y-21482D01*
X31618Y-21481D01*
X31190Y-21053D01*
X31241Y-21021D01*
X31389Y-20881D01*
X31462Y-20776D01*
X31471Y-20771D01*
X31487Y-20742D01*
X31506Y-20714D01*
X31534Y-20652D01*
X31566Y-20591D01*
X31575Y-20559D01*
X31589Y-20529D01*
X31604Y-20462D01*
X31623Y-20396D01*
X31626Y-20363D01*
X31634Y-20330D01*
X31634Y-20274D01*
X31642Y-20193D01*
X31636Y-20140D01*
X31637Y-20098D01*
X31626Y-20045D01*
X31621Y-19991D01*
X31607Y-19945D01*
X31597Y-19898D01*
X31577Y-19848D01*
X31561Y-19796D01*
X31537Y-19752D01*
X31520Y-19710D01*
X31495Y-19673D01*
X31471Y-19628D01*
X31461Y-19622D01*
X31407Y-19541D01*
X31264Y-19396D01*
X31177Y-19338D01*
X31171Y-19328D01*
X31132Y-19307D01*
X31095Y-19283D01*
X31042Y-19260D01*
X30991Y-19233D01*
X30948Y-19221D01*
X30908Y-19204D01*
X30851Y-19192D01*
X30796Y-19176D01*
X30752Y-19172D01*
X30708Y-19163D01*
X30651Y-19162D01*
X30593Y-19157D01*
X30549Y-19162D01*
X30505Y-19161D01*
X30448Y-19172D01*
X30391Y-19178D01*
X30349Y-19191D01*
X30305Y-19199D01*
X30252Y-19221D01*
X30196Y-19238D01*
X30155Y-19260D01*
X30117Y-19276D01*
X30076Y-19302D01*
X30028Y-19328D01*
X30022Y-19337D01*
X29946Y-19387D01*
X29801Y-19529D01*
X29746Y-19609D01*
X29718Y-19581D01*
X29696Y-19563D01*
X29674Y-19544D01*
X29673Y-19544D01*
X29671Y-19543D01*
X29646Y-19529D01*
X29621Y-19515D01*
X29620Y-19515D01*
X29618Y-19514D01*
X29591Y-19506D01*
X29564Y-19497D01*
X29562Y-19497D01*
X29561Y-19497D01*
X29532Y-19494D01*
X29504Y-19490D01*
X29501Y-19490D01*
X29501Y-19490D01*
X29501Y-19490D01*
X29500Y-19490D01*
X28910Y-19490D01*
X28896Y-19457D01*
X28869Y-19416D01*
X28835Y-19381D01*
X28794Y-19354D01*
X28749Y-19335D01*
X28701Y-19325D01*
X28652Y-19324D01*
X28400Y-19324D01*
X28352Y-19334D01*
X28307Y-19353D01*
X28266Y-19380D01*
X28250Y-19396D01*
X28235Y-19381D01*
X28194Y-19354D01*
X28149Y-19335D01*
X28101Y-19325D01*
X28052Y-19324D01*
X27800Y-19324D01*
X27752Y-19334D01*
X27707Y-19353D01*
X27666Y-19380D01*
X27631Y-19414D01*
X27604Y-19455D01*
X27600Y-19463D01*
X27318Y-19181D01*
X27268Y-19131D01*
X27246Y-19113D01*
X27224Y-19094D01*
X27223Y-19094D01*
X27221Y-19093D01*
X27196Y-19079D01*
X27171Y-19065D01*
X27170Y-19065D01*
X27168Y-19064D01*
X27141Y-19056D01*
X27114Y-19047D01*
X27112Y-19047D01*
X27111Y-19047D01*
X27082Y-19044D01*
X27054Y-19040D01*
X27051Y-19040D01*
X27051Y-19040D01*
X27051Y-19040D01*
X27050Y-19040D01*
X25550Y-19040D01*
X23750Y-19040D01*
X23600Y-19040D01*
X21650Y-19040D01*
X20800Y-19040D01*
X18050Y-19040D01*
X18021Y-19043D01*
X17993Y-19046D01*
X17991Y-19046D01*
X17989Y-19046D01*
X17962Y-19055D01*
X17935Y-19063D01*
X17933Y-19063D01*
X17932Y-19064D01*
X17907Y-19077D01*
X17881Y-19090D01*
X17880Y-19091D01*
X17878Y-19092D01*
X17856Y-19110D01*
X17834Y-19128D01*
X17832Y-19130D01*
X17832Y-19130D01*
X17832Y-19130D01*
X17831Y-19131D01*
X16881Y-20081D01*
X16863Y-20103D01*
X16844Y-20125D01*
X16844Y-20126D01*
X16843Y-20128D01*
X16829Y-20153D01*
X16815Y-20178D01*
X16815Y-20179D01*
X16814Y-20181D01*
X16806Y-20208D01*
X16797Y-20235D01*
X16797Y-20237D01*
X16797Y-20238D01*
X16794Y-20267D01*
X16790Y-20295D01*
X16790Y-20298D01*
X16790Y-20298D01*
X16790Y-20298D01*
X16790Y-20300D01*
X16790Y-21550D01*
X16793Y-21578D01*
X16796Y-21606D01*
X16796Y-21608D01*
X16796Y-21610D01*
X16805Y-21637D01*
X16813Y-21664D01*
X16813Y-21666D01*
X16814Y-21667D01*
X16827Y-21692D01*
X16840Y-21718D01*
X16841Y-21719D01*
X16842Y-21721D01*
X16860Y-21743D01*
X16878Y-21765D01*
X16880Y-21767D01*
X16880Y-21767D01*
X16880Y-21767D01*
X16881Y-21768D01*
X17090Y-21978D01*
X17090Y-22650D01*
X17090Y-23769D01*
X17078Y-23750D01*
X17002Y-23674D01*
X16912Y-23613D01*
X16813Y-23572D01*
X16707Y-23550D01*
X16599Y-23549D01*
X16493Y-23569D01*
X16393Y-23610D01*
X16303Y-23669D01*
X16256Y-23715D01*
X16242Y-23701D01*
X16242Y-20193D01*
X16236Y-20140D01*
X16237Y-20098D01*
X16226Y-20045D01*
X16221Y-19991D01*
X16207Y-19945D01*
X16197Y-19898D01*
X16177Y-19848D01*
X16161Y-19796D01*
X16137Y-19752D01*
X16120Y-19710D01*
X16095Y-19673D01*
X16071Y-19628D01*
X16061Y-19622D01*
X16007Y-19541D01*
X15864Y-19396D01*
X15777Y-19338D01*
X15771Y-19328D01*
X15732Y-19307D01*
X15695Y-19283D01*
X15642Y-19260D01*
X15591Y-19233D01*
X15548Y-19221D01*
X15508Y-19204D01*
X15451Y-19192D01*
X15396Y-19176D01*
X15352Y-19172D01*
X15308Y-19163D01*
X15251Y-19162D01*
X15193Y-19157D01*
X15149Y-19162D01*
X15105Y-19161D01*
X15048Y-19172D01*
X14991Y-19178D01*
X14949Y-19191D01*
X14905Y-19199D01*
X14852Y-19221D01*
X14796Y-19238D01*
X14755Y-19260D01*
X14717Y-19276D01*
X14676Y-19302D01*
X14628Y-19328D01*
X14622Y-19337D01*
X14546Y-19387D01*
X14401Y-19529D01*
X14337Y-19622D01*
X14328Y-19628D01*
X14309Y-19664D01*
X14286Y-19697D01*
X14262Y-19754D01*
X14233Y-19808D01*
X14222Y-19847D01*
X14206Y-19884D01*
X14193Y-19944D01*
X14176Y-20003D01*
X14172Y-20044D01*
X14164Y-20083D01*
X14163Y-20145D01*
X14157Y-20206D01*
X14161Y-20246D01*
X14161Y-20287D01*
X14172Y-20347D01*
X14178Y-20408D01*
X14190Y-20447D01*
X14197Y-20487D01*
X14220Y-20544D01*
X14238Y-20603D01*
X14258Y-20640D01*
X14272Y-20676D01*
X14300Y-20719D01*
X14328Y-20771D01*
X14337Y-20777D01*
X14383Y-20847D01*
X14524Y-20993D01*
X14622Y-21062D01*
X14628Y-21071D01*
X14661Y-21088D01*
X14691Y-21109D01*
X14751Y-21135D01*
X14808Y-21166D01*
X14844Y-21176D01*
X14877Y-21191D01*
X14941Y-21205D01*
X15003Y-21223D01*
X15040Y-21227D01*
X15076Y-21235D01*
X15141Y-21236D01*
X15206Y-21242D01*
X15243Y-21238D01*
X15279Y-21239D01*
X15344Y-21228D01*
X15408Y-21221D01*
X15443Y-21210D01*
X15480Y-21204D01*
X15540Y-21180D01*
X15603Y-21161D01*
X15637Y-21143D01*
X15670Y-21130D01*
X15715Y-21101D01*
X15771Y-21071D01*
X15776Y-21062D01*
X15841Y-21021D01*
X15989Y-20881D01*
X16062Y-20776D01*
X16071Y-20771D01*
X16087Y-20742D01*
X16106Y-20714D01*
X16134Y-20652D01*
X16166Y-20591D01*
X16175Y-20559D01*
X16189Y-20529D01*
X16204Y-20462D01*
X16223Y-20396D01*
X16226Y-20363D01*
X16234Y-20330D01*
X16234Y-20274D01*
X16242Y-20193D01*
X16242Y-23701D01*
X16215Y-23674D01*
X16125Y-23613D01*
X16026Y-23572D01*
X15920Y-23550D01*
X15812Y-23549D01*
X15706Y-23569D01*
X15606Y-23610D01*
X15585Y-23624D01*
X15585Y-22220D01*
X15581Y-22188D01*
X15581Y-22161D01*
X15572Y-22115D01*
X15566Y-22068D01*
X15557Y-22040D01*
X15551Y-22011D01*
X15533Y-21967D01*
X15519Y-21922D01*
X15502Y-21890D01*
X15493Y-21869D01*
X15480Y-21850D01*
X15463Y-21817D01*
X15457Y-21814D01*
X15408Y-21741D01*
X15300Y-21632D01*
X15222Y-21580D01*
X15220Y-21574D01*
X15195Y-21562D01*
X15173Y-21547D01*
X15127Y-21527D01*
X15083Y-21505D01*
X15057Y-21498D01*
X15032Y-21487D01*
X14983Y-21477D01*
X14935Y-21464D01*
X14908Y-21462D01*
X14882Y-21457D01*
X14832Y-21456D01*
X14782Y-21452D01*
X14755Y-21456D01*
X14728Y-21455D01*
X14680Y-21465D01*
X14630Y-21471D01*
X14604Y-21479D01*
X14578Y-21484D01*
X14532Y-21503D01*
X14484Y-21518D01*
X14456Y-21534D01*
X14436Y-21542D01*
X14415Y-21555D01*
X14379Y-21574D01*
X14376Y-21580D01*
X14307Y-21626D01*
X14198Y-21733D01*
X14142Y-21815D01*
X14136Y-21817D01*
X14125Y-21839D01*
X14111Y-21859D01*
X14091Y-21907D01*
X14067Y-21954D01*
X14061Y-21978D01*
X14051Y-22000D01*
X14040Y-22051D01*
X14026Y-22102D01*
X14024Y-22126D01*
X14019Y-22150D01*
X14018Y-22202D01*
X14014Y-22255D01*
X14017Y-22279D01*
X14017Y-22303D01*
X14026Y-22355D01*
X14033Y-22407D01*
X14040Y-22430D01*
X14045Y-22454D01*
X14064Y-22503D01*
X14080Y-22553D01*
X14094Y-22578D01*
X14101Y-22596D01*
X14115Y-22618D01*
X14136Y-22658D01*
X14142Y-22661D01*
X14184Y-22725D01*
X14291Y-22836D01*
X14377Y-22895D01*
X14379Y-22901D01*
X14399Y-22911D01*
X14416Y-22923D01*
X14467Y-22945D01*
X14516Y-22970D01*
X14537Y-22976D01*
X14557Y-22984D01*
X14611Y-22996D01*
X14664Y-23011D01*
X14685Y-23013D01*
X14707Y-23017D01*
X14762Y-23018D01*
X14817Y-23023D01*
X14838Y-23020D01*
X14860Y-23020D01*
X14914Y-23011D01*
X14969Y-23004D01*
X14989Y-22998D01*
X15011Y-22994D01*
X15062Y-22974D01*
X15115Y-22957D01*
X15137Y-22945D01*
X15154Y-22938D01*
X15177Y-22924D01*
X15220Y-22901D01*
X15223Y-22895D01*
X15283Y-22856D01*
X15394Y-22751D01*
X15458Y-22660D01*
X15463Y-22658D01*
X15471Y-22641D01*
X15482Y-22625D01*
X15506Y-22573D01*
X15532Y-22521D01*
X15537Y-22503D01*
X15545Y-22485D01*
X15557Y-22429D01*
X15573Y-22373D01*
X15574Y-22354D01*
X15579Y-22336D01*
X15579Y-22291D01*
X15585Y-22220D01*
X15585Y-23624D01*
X15516Y-23669D01*
X15439Y-23744D01*
X15378Y-23833D01*
X15336Y-23932D01*
X15313Y-24038D01*
X15312Y-24146D01*
X15331Y-24252D01*
X15371Y-24352D01*
X15429Y-24443D01*
X15504Y-24520D01*
X15593Y-24582D01*
X15632Y-24599D01*
X15606Y-24610D01*
X15516Y-24669D01*
X15439Y-24744D01*
X15378Y-24833D01*
X15336Y-24932D01*
X15313Y-25038D01*
X15312Y-25146D01*
X15331Y-25252D01*
X15371Y-25352D01*
X15429Y-25443D01*
X15504Y-25520D01*
X15593Y-25582D01*
X15692Y-25625D01*
X15797Y-25648D01*
X15905Y-25651D01*
X16011Y-25632D01*
X16112Y-25593D01*
X16203Y-25535D01*
X16256Y-25484D01*
X16291Y-25520D01*
X16380Y-25582D01*
X16479Y-25625D01*
X16584Y-25648D01*
X16692Y-25651D01*
X16798Y-25632D01*
X16899Y-25593D01*
X16990Y-25535D01*
X17068Y-25461D01*
X17130Y-25372D01*
X17174Y-25274D01*
X17198Y-25169D01*
X17200Y-25046D01*
X17179Y-24940D01*
X17137Y-24840D01*
X17078Y-24750D01*
X17002Y-24674D01*
X16912Y-24613D01*
X16880Y-24600D01*
X16899Y-24593D01*
X16990Y-24535D01*
X17068Y-24461D01*
X17093Y-24425D01*
X17093Y-24428D01*
X17096Y-24456D01*
X17096Y-24458D01*
X17096Y-24460D01*
X17105Y-24487D01*
X17113Y-24514D01*
X17113Y-24516D01*
X17114Y-24517D01*
X17127Y-24542D01*
X17140Y-24568D01*
X17141Y-24569D01*
X17142Y-24571D01*
X17160Y-24593D01*
X17178Y-24615D01*
X17180Y-24617D01*
X17180Y-24617D01*
X17180Y-24617D01*
X17181Y-24618D01*
X17614Y-25051D01*
X17613Y-25140D01*
X17614Y-25148D01*
X17372Y-25390D01*
X17354Y-25412D01*
X17335Y-25434D01*
X17335Y-25435D01*
X17334Y-25437D01*
X17320Y-25462D01*
X17306Y-25487D01*
X17306Y-25488D01*
X17305Y-25490D01*
X17297Y-25517D01*
X17288Y-25544D01*
X17288Y-25546D01*
X17288Y-25547D01*
X17285Y-25576D01*
X17281Y-25604D01*
X17281Y-25607D01*
X17281Y-25607D01*
X17281Y-25607D01*
X17281Y-25609D01*
X17281Y-28434D01*
X17054Y-28434D01*
X17006Y-28444D01*
X16961Y-28463D01*
X16920Y-28490D01*
X16885Y-28524D01*
X16858Y-28565D01*
X16839Y-28610D01*
X16829Y-28658D01*
X16828Y-28707D01*
X16828Y-29339D01*
X16838Y-29387D01*
X16857Y-29432D01*
X16884Y-29473D01*
X16918Y-29508D01*
X16959Y-29535D01*
X17004Y-29554D01*
X17052Y-29564D01*
X17101Y-29565D01*
X18127Y-29565D01*
X18175Y-29555D01*
X18220Y-29536D01*
X18261Y-29509D01*
X18296Y-29475D01*
X18299Y-29470D01*
X18302Y-29473D01*
X18336Y-29508D01*
X18377Y-29535D01*
X18422Y-29554D01*
X18470Y-29564D01*
X18519Y-29565D01*
X19545Y-29565D01*
X19593Y-29555D01*
X19638Y-29536D01*
X19679Y-29509D01*
X19714Y-29475D01*
X19741Y-29434D01*
X19760Y-29389D01*
X19770Y-29341D01*
X19771Y-29292D01*
X19771Y-28660D01*
X19761Y-28612D01*
X19742Y-28567D01*
X19715Y-28526D01*
X19681Y-28491D01*
X19640Y-28464D01*
X19595Y-28445D01*
X19547Y-28435D01*
X19498Y-28434D01*
X19318Y-28434D01*
X19318Y-27948D01*
X19325Y-27955D01*
X19326Y-27955D01*
X19328Y-27956D01*
X19353Y-27970D01*
X19378Y-27984D01*
X19379Y-27984D01*
X19381Y-27985D01*
X19408Y-27993D01*
X19435Y-28002D01*
X19437Y-28002D01*
X19438Y-28002D01*
X19467Y-28005D01*
X19495Y-28009D01*
X19498Y-28009D01*
X19498Y-28009D01*
X19498Y-28009D01*
X19500Y-28009D01*
X21900Y-28009D01*
X21928Y-28006D01*
X21956Y-28003D01*
X21958Y-28003D01*
X21960Y-28003D01*
X21987Y-27994D01*
X22014Y-27986D01*
X22016Y-27986D01*
X22017Y-27985D01*
X22042Y-27972D01*
X22068Y-27959D01*
X22069Y-27958D01*
X22071Y-27957D01*
X22093Y-27939D01*
X22115Y-27921D01*
X22117Y-27919D01*
X22117Y-27919D01*
X22117Y-27919D01*
X22118Y-27918D01*
X23018Y-27018D01*
X23036Y-26996D01*
X23055Y-26974D01*
X23055Y-26973D01*
X23056Y-26971D01*
X23070Y-26946D01*
X23084Y-26921D01*
X23084Y-26920D01*
X23085Y-26918D01*
X23093Y-26891D01*
X23102Y-26864D01*
X23102Y-26862D01*
X23102Y-26861D01*
X23105Y-26832D01*
X23109Y-26804D01*
X23109Y-26801D01*
X23109Y-26801D01*
X23109Y-26801D01*
X23109Y-26800D01*
X23109Y-26196D01*
X23231Y-26318D01*
X23253Y-26336D01*
X23275Y-26355D01*
X23276Y-26355D01*
X23278Y-26356D01*
X23303Y-26370D01*
X23328Y-26384D01*
X23329Y-26384D01*
X23331Y-26385D01*
X23358Y-26393D01*
X23385Y-26402D01*
X23387Y-26402D01*
X23388Y-26402D01*
X23417Y-26405D01*
X23445Y-26409D01*
X23448Y-26409D01*
X23448Y-26409D01*
X23448Y-26409D01*
X23450Y-26409D01*
X24622Y-26409D01*
X24614Y-26445D01*
X24613Y-26540D01*
X24630Y-26634D01*
X24665Y-26723D01*
X24717Y-26803D01*
X24783Y-26872D01*
X24861Y-26926D01*
X24949Y-26964D01*
X25042Y-26985D01*
X25137Y-26987D01*
X25231Y-26970D01*
X25320Y-26936D01*
X25400Y-26885D01*
X25469Y-26819D01*
X25524Y-26741D01*
X25563Y-26654D01*
X25584Y-26561D01*
X25586Y-26452D01*
X25585Y-26451D01*
X25620Y-26416D01*
X25614Y-26445D01*
X25613Y-26540D01*
X25630Y-26634D01*
X25665Y-26723D01*
X25717Y-26803D01*
X25783Y-26872D01*
X25861Y-26926D01*
X25949Y-26964D01*
X26042Y-26985D01*
X26137Y-26987D01*
X26231Y-26970D01*
X26320Y-26936D01*
X26400Y-26885D01*
X26469Y-26819D01*
X26524Y-26741D01*
X26563Y-26654D01*
X26584Y-26561D01*
X26586Y-26452D01*
X26579Y-26416D01*
X26614Y-26451D01*
X26613Y-26540D01*
X26630Y-26634D01*
X26665Y-26723D01*
X26717Y-26803D01*
X26783Y-26872D01*
X26861Y-26926D01*
X26949Y-26964D01*
X27042Y-26985D01*
X27137Y-26987D01*
X27231Y-26970D01*
X27320Y-26936D01*
X27400Y-26885D01*
X27469Y-26819D01*
X27524Y-26741D01*
X27563Y-26654D01*
X27584Y-26561D01*
X27586Y-26452D01*
X27579Y-26416D01*
X27614Y-26451D01*
X27613Y-26540D01*
X27630Y-26634D01*
X27665Y-26723D01*
X27717Y-26803D01*
X27783Y-26872D01*
X27861Y-26926D01*
X27949Y-26964D01*
X28042Y-26985D01*
X28137Y-26987D01*
X28231Y-26970D01*
X28320Y-26936D01*
X28400Y-26885D01*
X28469Y-26819D01*
X28524Y-26741D01*
X28563Y-26654D01*
X28584Y-26561D01*
X28586Y-26452D01*
X28585Y-26451D01*
X28628Y-26409D01*
X29337Y-26409D01*
X29331Y-26414D01*
X29304Y-26455D01*
X29285Y-26500D01*
X29275Y-26548D01*
X29274Y-26597D01*
X29274Y-26849D01*
X29284Y-26897D01*
X29303Y-26942D01*
X29330Y-26983D01*
X29364Y-27018D01*
X29405Y-27045D01*
X29447Y-27063D01*
X29455Y-27087D01*
X29463Y-27114D01*
X29463Y-27116D01*
X29464Y-27117D01*
X29477Y-27142D01*
X29490Y-27168D01*
X29491Y-27169D01*
X29492Y-27171D01*
X29510Y-27193D01*
X29528Y-27215D01*
X29530Y-27217D01*
X29530Y-27217D01*
X29530Y-27217D01*
X29531Y-27218D01*
X29731Y-27418D01*
X29753Y-27436D01*
X29775Y-27455D01*
X29776Y-27455D01*
X29778Y-27456D01*
X29803Y-27470D01*
X29828Y-27484D01*
X29829Y-27484D01*
X29831Y-27485D01*
X29858Y-27493D01*
X29885Y-27502D01*
X29887Y-27502D01*
X29888Y-27502D01*
X29917Y-27505D01*
X29945Y-27509D01*
X29948Y-27509D01*
X29948Y-27509D01*
X29948Y-27509D01*
X29950Y-27509D01*
X31022Y-27509D01*
X31083Y-27572D01*
X31161Y-27626D01*
X31249Y-27664D01*
X31342Y-27685D01*
X31437Y-27687D01*
X31531Y-27670D01*
X31620Y-27636D01*
X31700Y-27585D01*
X31769Y-27519D01*
X31824Y-27441D01*
X31863Y-27354D01*
X31884Y-27261D01*
X31886Y-27152D01*
X31886Y-30350D01*
X31642Y-30350D01*
X31642Y-28993D01*
X31636Y-28940D01*
X31637Y-28898D01*
X31626Y-28845D01*
X31621Y-28791D01*
X31607Y-28745D01*
X31597Y-28698D01*
X31577Y-28648D01*
X31561Y-28596D01*
X31537Y-28552D01*
X31520Y-28510D01*
X31495Y-28473D01*
X31471Y-28428D01*
X31461Y-28422D01*
X31407Y-28341D01*
X31264Y-28196D01*
X31177Y-28138D01*
X31171Y-28128D01*
X31132Y-28107D01*
X31095Y-28083D01*
X31042Y-28060D01*
X30991Y-28033D01*
X30948Y-28021D01*
X30908Y-28004D01*
X30851Y-27992D01*
X30796Y-27976D01*
X30752Y-27972D01*
X30708Y-27963D01*
X30651Y-27962D01*
X30593Y-27957D01*
X30549Y-27962D01*
X30505Y-27961D01*
X30448Y-27972D01*
X30391Y-27978D01*
X30349Y-27991D01*
X30305Y-27999D01*
X30252Y-28021D01*
X30196Y-28038D01*
X30155Y-28060D01*
X30117Y-28076D01*
X30076Y-28102D01*
X30028Y-28128D01*
X30022Y-28137D01*
X29946Y-28187D01*
X29801Y-28329D01*
X29737Y-28422D01*
X29728Y-28428D01*
X29709Y-28464D01*
X29686Y-28497D01*
X29662Y-28554D01*
X29633Y-28608D01*
X29622Y-28647D01*
X29606Y-28684D01*
X29593Y-28744D01*
X29576Y-28803D01*
X29572Y-28844D01*
X29564Y-28883D01*
X29563Y-28945D01*
X29557Y-29006D01*
X29561Y-29046D01*
X29561Y-29087D01*
X29572Y-29147D01*
X29578Y-29208D01*
X29590Y-29247D01*
X29597Y-29287D01*
X29620Y-29344D01*
X29638Y-29403D01*
X29658Y-29440D01*
X29672Y-29476D01*
X29700Y-29519D01*
X29728Y-29571D01*
X29737Y-29577D01*
X29783Y-29647D01*
X29924Y-29793D01*
X30022Y-29862D01*
X30028Y-29871D01*
X30061Y-29888D01*
X30091Y-29909D01*
X30151Y-29935D01*
X30208Y-29966D01*
X30244Y-29976D01*
X30277Y-29991D01*
X30341Y-30005D01*
X30403Y-30023D01*
X30440Y-30027D01*
X30476Y-30035D01*
X30541Y-30036D01*
X30606Y-30042D01*
X30643Y-30038D01*
X30679Y-30039D01*
X30744Y-30028D01*
X30808Y-30021D01*
X30843Y-30010D01*
X30880Y-30004D01*
X30940Y-29980D01*
X31003Y-29961D01*
X31037Y-29943D01*
X31070Y-29930D01*
X31115Y-29901D01*
X31171Y-29871D01*
X31176Y-29862D01*
X31241Y-29821D01*
X31389Y-29681D01*
X31462Y-29576D01*
X31471Y-29571D01*
X31487Y-29542D01*
X31506Y-29514D01*
X31534Y-29452D01*
X31566Y-29391D01*
X31575Y-29359D01*
X31589Y-29329D01*
X31604Y-29262D01*
X31623Y-29196D01*
X31626Y-29163D01*
X31634Y-29130D01*
X31634Y-29074D01*
X31642Y-28993D01*
X31642Y-30350D01*
X27750Y-30350D01*
X27750Y-28427D01*
X27750Y-27825D01*
X27740Y-27777D01*
X27721Y-27732D01*
X27694Y-27691D01*
X27660Y-27656D01*
X27619Y-27629D01*
X27574Y-27610D01*
X27526Y-27600D01*
X27477Y-27599D01*
X26875Y-27599D01*
X26827Y-27609D01*
X26782Y-27628D01*
X26741Y-27655D01*
X26706Y-27689D01*
X26679Y-27730D01*
X26660Y-27775D01*
X26650Y-27823D01*
X26650Y-27833D01*
X26628Y-27800D01*
X26552Y-27724D01*
X26462Y-27663D01*
X26363Y-27622D01*
X26257Y-27600D01*
X26149Y-27599D01*
X26043Y-27619D01*
X25943Y-27660D01*
X25853Y-27719D01*
X25776Y-27794D01*
X25715Y-27883D01*
X25700Y-27920D01*
X25687Y-27890D01*
X25628Y-27800D01*
X25552Y-27724D01*
X25462Y-27663D01*
X25363Y-27622D01*
X25257Y-27600D01*
X25149Y-27599D01*
X25043Y-27619D01*
X24943Y-27660D01*
X24853Y-27719D01*
X24776Y-27794D01*
X24715Y-27883D01*
X24673Y-27982D01*
X24650Y-28088D01*
X24649Y-28196D01*
X24668Y-28302D01*
X24708Y-28402D01*
X24766Y-28493D01*
X24841Y-28570D01*
X24930Y-28632D01*
X24969Y-28649D01*
X24943Y-28660D01*
X24853Y-28719D01*
X24776Y-28794D01*
X24715Y-28883D01*
X24673Y-28982D01*
X24650Y-29088D01*
X24649Y-29196D01*
X24668Y-29302D01*
X24708Y-29402D01*
X24766Y-29493D01*
X24841Y-29570D01*
X24930Y-29632D01*
X25029Y-29675D01*
X25134Y-29698D01*
X25242Y-29701D01*
X25348Y-29682D01*
X25449Y-29643D01*
X25540Y-29585D01*
X25618Y-29511D01*
X25680Y-29422D01*
X25699Y-29380D01*
X25708Y-29402D01*
X25766Y-29493D01*
X25841Y-29570D01*
X25930Y-29632D01*
X26029Y-29675D01*
X26134Y-29698D01*
X26242Y-29701D01*
X26348Y-29682D01*
X26449Y-29643D01*
X26540Y-29585D01*
X26618Y-29511D01*
X26680Y-29422D01*
X26699Y-29380D01*
X26708Y-29402D01*
X26766Y-29493D01*
X26841Y-29570D01*
X26930Y-29632D01*
X27029Y-29675D01*
X27134Y-29698D01*
X27242Y-29701D01*
X27348Y-29682D01*
X27449Y-29643D01*
X27540Y-29585D01*
X27618Y-29511D01*
X27680Y-29422D01*
X27724Y-29324D01*
X27748Y-29219D01*
X27750Y-29096D01*
X27729Y-28990D01*
X27687Y-28890D01*
X27628Y-28800D01*
X27552Y-28724D01*
X27516Y-28700D01*
X27524Y-28700D01*
X27572Y-28690D01*
X27617Y-28671D01*
X27658Y-28644D01*
X27693Y-28610D01*
X27720Y-28569D01*
X27739Y-28524D01*
X27749Y-28476D01*
X27750Y-28427D01*
X27750Y-30350D01*
X22580Y-30350D01*
X22580Y-28943D01*
X22557Y-28831D01*
X22514Y-28726D01*
X22451Y-28631D01*
X22371Y-28550D01*
X22277Y-28487D01*
X22172Y-28443D01*
X22060Y-28420D01*
X21947Y-28419D01*
X21835Y-28440D01*
X21729Y-28483D01*
X21634Y-28545D01*
X21553Y-28625D01*
X21499Y-28703D01*
X21451Y-28631D01*
X21371Y-28550D01*
X21277Y-28487D01*
X21172Y-28443D01*
X21060Y-28420D01*
X20947Y-28419D01*
X20835Y-28440D01*
X20729Y-28483D01*
X20634Y-28545D01*
X20553Y-28625D01*
X20489Y-28719D01*
X20444Y-28823D01*
X20420Y-28935D01*
X20419Y-29048D01*
X20439Y-29160D01*
X20481Y-29266D01*
X20543Y-29362D01*
X20622Y-29443D01*
X20715Y-29508D01*
X20819Y-29554D01*
X20930Y-29578D01*
X21044Y-29581D01*
X21156Y-29561D01*
X21262Y-29520D01*
X21358Y-29459D01*
X21441Y-29380D01*
X21500Y-29296D01*
X21543Y-29362D01*
X21622Y-29443D01*
X21715Y-29508D01*
X21819Y-29554D01*
X21930Y-29578D01*
X22044Y-29581D01*
X22156Y-29561D01*
X22262Y-29520D01*
X22358Y-29459D01*
X22441Y-29380D01*
X22506Y-29287D01*
X22553Y-29183D01*
X22578Y-29073D01*
X22580Y-28943D01*
X22580Y-30350D01*
X16242Y-30350D01*
X16242Y-28993D01*
X16236Y-28940D01*
X16237Y-28898D01*
X16226Y-28845D01*
X16221Y-28791D01*
X16207Y-28745D01*
X16197Y-28698D01*
X16177Y-28648D01*
X16161Y-28596D01*
X16137Y-28552D01*
X16120Y-28510D01*
X16095Y-28473D01*
X16071Y-28428D01*
X16061Y-28422D01*
X16007Y-28341D01*
X15864Y-28196D01*
X15777Y-28138D01*
X15771Y-28128D01*
X15732Y-28107D01*
X15695Y-28083D01*
X15642Y-28060D01*
X15591Y-28033D01*
X15585Y-28031D01*
X15585Y-26944D01*
X15581Y-26912D01*
X15581Y-26885D01*
X15572Y-26839D01*
X15566Y-26792D01*
X15557Y-26764D01*
X15551Y-26735D01*
X15533Y-26691D01*
X15519Y-26646D01*
X15502Y-26614D01*
X15493Y-26593D01*
X15480Y-26574D01*
X15463Y-26541D01*
X15457Y-26538D01*
X15408Y-26465D01*
X15300Y-26356D01*
X15222Y-26304D01*
X15220Y-26298D01*
X15195Y-26286D01*
X15173Y-26271D01*
X15127Y-26251D01*
X15083Y-26229D01*
X15057Y-26222D01*
X15032Y-26211D01*
X14983Y-26201D01*
X14935Y-26188D01*
X14908Y-26186D01*
X14882Y-26181D01*
X14832Y-26180D01*
X14782Y-26176D01*
X14755Y-26180D01*
X14728Y-26179D01*
X14680Y-26189D01*
X14630Y-26195D01*
X14604Y-26203D01*
X14578Y-26208D01*
X14532Y-26227D01*
X14484Y-26242D01*
X14456Y-26258D01*
X14436Y-26266D01*
X14415Y-26279D01*
X14379Y-26298D01*
X14376Y-26304D01*
X14307Y-26350D01*
X14198Y-26457D01*
X14142Y-26539D01*
X14136Y-26541D01*
X14125Y-26563D01*
X14111Y-26583D01*
X14091Y-26631D01*
X14067Y-26678D01*
X14061Y-26702D01*
X14051Y-26724D01*
X14040Y-26775D01*
X14026Y-26826D01*
X14024Y-26850D01*
X14019Y-26874D01*
X14018Y-26926D01*
X14014Y-26979D01*
X14017Y-27003D01*
X14017Y-27027D01*
X14026Y-27079D01*
X14033Y-27131D01*
X14040Y-27154D01*
X14045Y-27178D01*
X14064Y-27227D01*
X14080Y-27277D01*
X14094Y-27302D01*
X14101Y-27320D01*
X14115Y-27342D01*
X14136Y-27382D01*
X14142Y-27385D01*
X14184Y-27449D01*
X14291Y-27560D01*
X14377Y-27619D01*
X14379Y-27625D01*
X14399Y-27635D01*
X14416Y-27647D01*
X14467Y-27669D01*
X14516Y-27694D01*
X14537Y-27700D01*
X14557Y-27708D01*
X14611Y-27720D01*
X14664Y-27735D01*
X14685Y-27737D01*
X14707Y-27741D01*
X14762Y-27742D01*
X14817Y-27747D01*
X14838Y-27744D01*
X14860Y-27744D01*
X14914Y-27735D01*
X14969Y-27728D01*
X14989Y-27722D01*
X15011Y-27718D01*
X15062Y-27698D01*
X15115Y-27681D01*
X15137Y-27669D01*
X15154Y-27662D01*
X15177Y-27648D01*
X15220Y-27625D01*
X15223Y-27619D01*
X15283Y-27580D01*
X15394Y-27475D01*
X15458Y-27384D01*
X15463Y-27382D01*
X15471Y-27365D01*
X15482Y-27349D01*
X15506Y-27297D01*
X15532Y-27245D01*
X15537Y-27227D01*
X15545Y-27209D01*
X15557Y-27153D01*
X15573Y-27097D01*
X15574Y-27078D01*
X15579Y-27060D01*
X15579Y-27015D01*
X15585Y-26944D01*
X15585Y-28031D01*
X15548Y-28021D01*
X15508Y-28004D01*
X15451Y-27992D01*
X15396Y-27976D01*
X15352Y-27972D01*
X15308Y-27963D01*
X15251Y-27962D01*
X15193Y-27957D01*
X15149Y-27962D01*
X15105Y-27961D01*
X15048Y-27972D01*
X14991Y-27978D01*
X14949Y-27991D01*
X14905Y-27999D01*
X14852Y-28021D01*
X14796Y-28038D01*
X14755Y-28060D01*
X14717Y-28076D01*
X14676Y-28102D01*
X14628Y-28128D01*
X14622Y-28137D01*
X14546Y-28187D01*
X14401Y-28329D01*
X14337Y-28422D01*
X14328Y-28428D01*
X14309Y-28464D01*
X14286Y-28497D01*
X14262Y-28554D01*
X14233Y-28608D01*
X14222Y-28647D01*
X14206Y-28684D01*
X14193Y-28744D01*
X14176Y-28803D01*
X14172Y-28844D01*
X14164Y-28883D01*
X14163Y-28945D01*
X14157Y-29006D01*
X14161Y-29046D01*
X14161Y-29087D01*
X14172Y-29147D01*
X14178Y-29208D01*
X14190Y-29247D01*
X14197Y-29287D01*
X14220Y-29344D01*
X14238Y-29403D01*
X14258Y-29440D01*
X14272Y-29476D01*
X14300Y-29519D01*
X14328Y-29571D01*
X14337Y-29577D01*
X14383Y-29647D01*
X14524Y-29793D01*
X14622Y-29862D01*
X14628Y-29871D01*
X14661Y-29888D01*
X14691Y-29909D01*
X14751Y-29935D01*
X14808Y-29966D01*
X14844Y-29976D01*
X14877Y-29991D01*
X14941Y-30005D01*
X15003Y-30023D01*
X15040Y-30027D01*
X15076Y-30035D01*
X15141Y-30036D01*
X15206Y-30042D01*
X15243Y-30038D01*
X15279Y-30039D01*
X15344Y-30028D01*
X15408Y-30021D01*
X15443Y-30010D01*
X15480Y-30004D01*
X15540Y-29980D01*
X15603Y-29961D01*
X15637Y-29943D01*
X15670Y-29930D01*
X15715Y-29901D01*
X15771Y-29871D01*
X15776Y-29862D01*
X15841Y-29821D01*
X15989Y-29681D01*
X16062Y-29576D01*
X16071Y-29571D01*
X16087Y-29542D01*
X16106Y-29514D01*
X16134Y-29452D01*
X16166Y-29391D01*
X16175Y-29359D01*
X16189Y-29329D01*
X16204Y-29262D01*
X16223Y-29196D01*
X16226Y-29163D01*
X16234Y-29130D01*
X16234Y-29074D01*
X16242Y-28993D01*
X16242Y-30350D01*
X13850Y-30350D01*
X13850Y-18850D01*
X31950Y-18850D01*
X31950Y-23045D01*
X31929Y-22940D01*
X31887Y-22840D01*
X31828Y-22750D01*
X31752Y-22674D01*
X31662Y-22613D01*
X31563Y-22572D01*
X31457Y-22550D01*
X31349Y-22549D01*
X31243Y-22569D01*
X31143Y-22610D01*
X31053Y-22669D01*
X30976Y-22744D01*
X30915Y-22833D01*
X30873Y-22932D01*
X30850Y-23038D01*
X30849Y-23146D01*
X30868Y-23252D01*
X30908Y-23352D01*
X30966Y-23443D01*
X31041Y-23520D01*
X31130Y-23582D01*
X31169Y-23599D01*
X31143Y-23610D01*
X31053Y-23669D01*
X30976Y-23744D01*
X30915Y-23833D01*
X30873Y-23932D01*
X30850Y-24038D01*
X30849Y-24146D01*
X30868Y-24252D01*
X30908Y-24352D01*
X30966Y-24443D01*
X31041Y-24520D01*
X31130Y-24582D01*
X31169Y-24599D01*
X31143Y-24610D01*
X31053Y-24669D01*
X30976Y-24744D01*
X30915Y-24833D01*
X30873Y-24932D01*
X30850Y-25038D01*
X30849Y-25146D01*
X30868Y-25252D01*
X30908Y-25352D01*
X30966Y-25443D01*
X31041Y-25520D01*
X31083Y-25549D01*
X31075Y-25549D01*
X31027Y-25559D01*
X30982Y-25578D01*
X30941Y-25605D01*
X30906Y-25639D01*
X30879Y-25680D01*
X30860Y-25725D01*
X30850Y-25773D01*
X30849Y-25822D01*
X30849Y-26424D01*
X30859Y-26472D01*
X30878Y-26517D01*
X30905Y-26558D01*
X30939Y-26593D01*
X30980Y-26620D01*
X31025Y-26639D01*
X31073Y-26649D01*
X31122Y-26650D01*
X31724Y-26650D01*
X31772Y-26640D01*
X31817Y-26621D01*
X31858Y-26594D01*
X31893Y-26560D01*
X31920Y-26519D01*
X31939Y-26474D01*
X31949Y-26426D01*
X31950Y-26402D01*
X31950Y-30350D01*
X31950Y-30350D01*
G37*
G54D23*
X31950Y-30350D02*
X31886Y-30350D01*
X31886Y-27152D01*
X31867Y-27058D01*
X31831Y-26970D01*
X31778Y-26891D01*
X31711Y-26823D01*
X31632Y-26770D01*
X31544Y-26733D01*
X31451Y-26714D01*
X31355Y-26713D01*
X31262Y-26731D01*
X31173Y-26767D01*
X31093Y-26819D01*
X31025Y-26885D01*
X31022Y-26890D01*
X30216Y-26890D01*
X30224Y-26851D01*
X30225Y-26802D01*
X30225Y-26550D01*
X30215Y-26502D01*
X30196Y-26457D01*
X30169Y-26416D01*
X30153Y-26400D01*
X30168Y-26385D01*
X30195Y-26344D01*
X30214Y-26299D01*
X30224Y-26251D01*
X30225Y-26202D01*
X30225Y-25950D01*
X30215Y-25902D01*
X30196Y-25857D01*
X30169Y-25816D01*
X30135Y-25781D01*
X30094Y-25754D01*
X30059Y-25739D01*
X30059Y-25586D01*
X30087Y-25587D01*
X30181Y-25570D01*
X30270Y-25536D01*
X30350Y-25485D01*
X30419Y-25419D01*
X30474Y-25341D01*
X30513Y-25254D01*
X30534Y-25161D01*
X30536Y-25052D01*
X30517Y-24958D01*
X30481Y-24870D01*
X30428Y-24791D01*
X30361Y-24723D01*
X30282Y-24670D01*
X30194Y-24633D01*
X30101Y-24614D01*
X30005Y-24613D01*
X30001Y-24614D01*
X29966Y-24579D01*
X29992Y-24585D01*
X30087Y-24587D01*
X30181Y-24570D01*
X30270Y-24536D01*
X30350Y-24485D01*
X30419Y-24419D01*
X30474Y-24341D01*
X30513Y-24254D01*
X30534Y-24161D01*
X30536Y-24052D01*
X30517Y-23958D01*
X30481Y-23870D01*
X30428Y-23791D01*
X30361Y-23723D01*
X30359Y-23721D01*
X30359Y-22200D01*
X30356Y-22171D01*
X30353Y-22143D01*
X30353Y-22141D01*
X30353Y-22139D01*
X30344Y-22112D01*
X30336Y-22085D01*
X30336Y-22083D01*
X30335Y-22082D01*
X30322Y-22057D01*
X30309Y-22031D01*
X30308Y-22030D01*
X30307Y-22028D01*
X30289Y-22006D01*
X30271Y-21984D01*
X30269Y-21982D01*
X30269Y-21982D01*
X30269Y-21982D01*
X30268Y-21981D01*
X29418Y-21131D01*
X29396Y-21113D01*
X29374Y-21094D01*
X29373Y-21094D01*
X29371Y-21093D01*
X29346Y-21079D01*
X29321Y-21065D01*
X29320Y-21065D01*
X29318Y-21064D01*
X29291Y-21056D01*
X29264Y-21047D01*
X29262Y-21047D01*
X29261Y-21047D01*
X29232Y-21044D01*
X29204Y-21040D01*
X29201Y-21040D01*
X29201Y-21040D01*
X29201Y-21040D01*
X29200Y-21040D01*
X29200Y-20250D01*
X28785Y-20250D01*
X28792Y-20246D01*
X28833Y-20219D01*
X28868Y-20185D01*
X28895Y-20144D01*
X28910Y-20109D01*
X29371Y-20109D01*
X29563Y-20300D01*
X29572Y-20347D01*
X29578Y-20408D01*
X29590Y-20447D01*
X29597Y-20487D01*
X29620Y-20544D01*
X29638Y-20603D01*
X29658Y-20640D01*
X29672Y-20676D01*
X29700Y-20719D01*
X29728Y-20771D01*
X29737Y-20777D01*
X29783Y-20847D01*
X29924Y-20993D01*
X30022Y-21062D01*
X30028Y-21071D01*
X30061Y-21088D01*
X30091Y-21109D01*
X30151Y-21135D01*
X30208Y-21166D01*
X30244Y-21176D01*
X30277Y-21191D01*
X30341Y-21205D01*
X30403Y-21223D01*
X30440Y-21227D01*
X30476Y-21235D01*
X30498Y-21235D01*
X30994Y-21731D01*
X30971Y-21764D01*
X30934Y-21852D01*
X30914Y-21945D01*
X30913Y-22040D01*
X30930Y-22134D01*
X30965Y-22223D01*
X31017Y-22303D01*
X31083Y-22372D01*
X31161Y-22426D01*
X31249Y-22464D01*
X31342Y-22485D01*
X31437Y-22487D01*
X31531Y-22470D01*
X31620Y-22436D01*
X31700Y-22385D01*
X31769Y-22319D01*
X31824Y-22241D01*
X31863Y-22154D01*
X31884Y-22061D01*
X31886Y-21952D01*
X31867Y-21858D01*
X31831Y-21770D01*
X31778Y-21691D01*
X31711Y-21623D01*
X31694Y-21612D01*
X31686Y-21585D01*
X31686Y-21583D01*
X31685Y-21582D01*
X31672Y-21557D01*
X31659Y-21531D01*
X31658Y-21530D01*
X31657Y-21528D01*
X31639Y-21506D01*
X31621Y-21484D01*
X31619Y-21482D01*
X31619Y-21482D01*
X31619Y-21482D01*
X31618Y-21481D01*
X31190Y-21053D01*
X31241Y-21021D01*
X31389Y-20881D01*
X31462Y-20776D01*
X31471Y-20771D01*
X31487Y-20742D01*
X31506Y-20714D01*
X31534Y-20652D01*
X31566Y-20591D01*
X31575Y-20559D01*
X31589Y-20529D01*
X31604Y-20462D01*
X31623Y-20396D01*
X31626Y-20363D01*
X31634Y-20330D01*
X31634Y-20274D01*
X31642Y-20193D01*
X31636Y-20140D01*
X31637Y-20098D01*
X31626Y-20045D01*
X31621Y-19991D01*
X31607Y-19945D01*
X31597Y-19898D01*
X31577Y-19848D01*
X31561Y-19796D01*
X31537Y-19752D01*
X31520Y-19710D01*
X31495Y-19673D01*
X31471Y-19628D01*
X31461Y-19622D01*
X31407Y-19541D01*
X31264Y-19396D01*
X31177Y-19338D01*
X31171Y-19328D01*
X31132Y-19307D01*
X31095Y-19283D01*
X31042Y-19260D01*
X30991Y-19233D01*
X30948Y-19221D01*
X30908Y-19204D01*
X30851Y-19192D01*
X30796Y-19176D01*
X30752Y-19172D01*
X30708Y-19163D01*
X30651Y-19162D01*
X30593Y-19157D01*
X30549Y-19162D01*
X30505Y-19161D01*
X30448Y-19172D01*
X30391Y-19178D01*
X30349Y-19191D01*
X30305Y-19199D01*
X30252Y-19221D01*
X30196Y-19238D01*
X30155Y-19260D01*
X30117Y-19276D01*
X30076Y-19302D01*
X30028Y-19328D01*
X30022Y-19337D01*
X29946Y-19387D01*
X29801Y-19529D01*
X29746Y-19609D01*
X29718Y-19581D01*
X29696Y-19563D01*
X29674Y-19544D01*
X29673Y-19544D01*
X29671Y-19543D01*
X29646Y-19529D01*
X29621Y-19515D01*
X29620Y-19515D01*
X29618Y-19514D01*
X29591Y-19506D01*
X29564Y-19497D01*
X29562Y-19497D01*
X29561Y-19497D01*
X29532Y-19494D01*
X29504Y-19490D01*
X29501Y-19490D01*
X29501Y-19490D01*
X29501Y-19490D01*
X29500Y-19490D01*
X28910Y-19490D01*
X28896Y-19457D01*
X28869Y-19416D01*
X28835Y-19381D01*
X28794Y-19354D01*
X28749Y-19335D01*
X28701Y-19325D01*
X28652Y-19324D01*
X28400Y-19324D01*
X28352Y-19334D01*
X28307Y-19353D01*
X28266Y-19380D01*
X28250Y-19396D01*
X28235Y-19381D01*
X28194Y-19354D01*
X28149Y-19335D01*
X28101Y-19325D01*
X28052Y-19324D01*
X27800Y-19324D01*
X27752Y-19334D01*
X27707Y-19353D01*
X27666Y-19380D01*
X27631Y-19414D01*
X27604Y-19455D01*
X27600Y-19463D01*
X27318Y-19181D01*
X27268Y-19131D01*
X27246Y-19113D01*
X27224Y-19094D01*
X27223Y-19094D01*
X27221Y-19093D01*
X27196Y-19079D01*
X27171Y-19065D01*
X27170Y-19065D01*
X27168Y-19064D01*
X27141Y-19056D01*
X27114Y-19047D01*
X27112Y-19047D01*
X27111Y-19047D01*
X27082Y-19044D01*
X27054Y-19040D01*
X27051Y-19040D01*
X27051Y-19040D01*
X27051Y-19040D01*
X27050Y-19040D01*
X25550Y-19040D01*
X23750Y-19040D01*
X23600Y-19040D01*
X21650Y-19040D01*
X20800Y-19040D01*
X18050Y-19040D01*
X18021Y-19043D01*
X17993Y-19046D01*
X17991Y-19046D01*
X17989Y-19046D01*
X17962Y-19055D01*
X17935Y-19063D01*
X17933Y-19063D01*
X17932Y-19064D01*
X17907Y-19077D01*
X17881Y-19090D01*
X17880Y-19091D01*
X17878Y-19092D01*
X17856Y-19110D01*
X17834Y-19128D01*
X17832Y-19130D01*
X17832Y-19130D01*
X17832Y-19130D01*
X17831Y-19131D01*
X16881Y-20081D01*
X16863Y-20103D01*
X16844Y-20125D01*
X16844Y-20126D01*
X16843Y-20128D01*
X16829Y-20153D01*
X16815Y-20178D01*
X16815Y-20179D01*
X16814Y-20181D01*
X16806Y-20208D01*
X16797Y-20235D01*
X16797Y-20237D01*
X16797Y-20238D01*
X16794Y-20267D01*
X16790Y-20295D01*
X16790Y-20298D01*
X16790Y-20298D01*
X16790Y-20298D01*
X16790Y-20300D01*
X16790Y-21550D01*
X16793Y-21578D01*
X16796Y-21606D01*
X16796Y-21608D01*
X16796Y-21610D01*
X16805Y-21637D01*
X16813Y-21664D01*
X16813Y-21666D01*
X16814Y-21667D01*
X16827Y-21692D01*
X16840Y-21718D01*
X16841Y-21719D01*
X16842Y-21721D01*
X16860Y-21743D01*
X16878Y-21765D01*
X16880Y-21767D01*
X16880Y-21767D01*
X16880Y-21767D01*
X16881Y-21768D01*
X17090Y-21978D01*
X17090Y-22650D01*
X17090Y-23769D01*
X17078Y-23750D01*
X17002Y-23674D01*
X16912Y-23613D01*
X16813Y-23572D01*
X16707Y-23550D01*
X16599Y-23549D01*
X16493Y-23569D01*
X16393Y-23610D01*
X16303Y-23669D01*
X16256Y-23715D01*
X16242Y-23701D01*
X16242Y-20193D01*
X16236Y-20140D01*
X16237Y-20098D01*
X16226Y-20045D01*
X16221Y-19991D01*
X16207Y-19945D01*
X16197Y-19898D01*
X16177Y-19848D01*
X16161Y-19796D01*
X16137Y-19752D01*
X16120Y-19710D01*
X16095Y-19673D01*
X16071Y-19628D01*
X16061Y-19622D01*
X16007Y-19541D01*
X15864Y-19396D01*
X15777Y-19338D01*
X15771Y-19328D01*
X15732Y-19307D01*
X15695Y-19283D01*
X15642Y-19260D01*
X15591Y-19233D01*
X15548Y-19221D01*
X15508Y-19204D01*
X15451Y-19192D01*
X15396Y-19176D01*
X15352Y-19172D01*
X15308Y-19163D01*
X15251Y-19162D01*
X15193Y-19157D01*
X15149Y-19162D01*
X15105Y-19161D01*
X15048Y-19172D01*
X14991Y-19178D01*
X14949Y-19191D01*
X14905Y-19199D01*
X14852Y-19221D01*
X14796Y-19238D01*
X14755Y-19260D01*
X14717Y-19276D01*
X14676Y-19302D01*
X14628Y-19328D01*
X14622Y-19337D01*
X14546Y-19387D01*
X14401Y-19529D01*
X14337Y-19622D01*
X14328Y-19628D01*
X14309Y-19664D01*
X14286Y-19697D01*
X14262Y-19754D01*
X14233Y-19808D01*
X14222Y-19847D01*
X14206Y-19884D01*
X14193Y-19944D01*
X14176Y-20003D01*
X14172Y-20044D01*
X14164Y-20083D01*
X14163Y-20145D01*
X14157Y-20206D01*
X14161Y-20246D01*
X14161Y-20287D01*
X14172Y-20347D01*
X14178Y-20408D01*
X14190Y-20447D01*
X14197Y-20487D01*
X14220Y-20544D01*
X14238Y-20603D01*
X14258Y-20640D01*
X14272Y-20676D01*
X14300Y-20719D01*
X14328Y-20771D01*
X14337Y-20777D01*
X14383Y-20847D01*
X14524Y-20993D01*
X14622Y-21062D01*
X14628Y-21071D01*
X14661Y-21088D01*
X14691Y-21109D01*
X14751Y-21135D01*
X14808Y-21166D01*
X14844Y-21176D01*
X14877Y-21191D01*
X14941Y-21205D01*
X15003Y-21223D01*
X15040Y-21227D01*
X15076Y-21235D01*
X15141Y-21236D01*
X15206Y-21242D01*
X15243Y-21238D01*
X15279Y-21239D01*
X15344Y-21228D01*
X15408Y-21221D01*
X15443Y-21210D01*
X15480Y-21204D01*
X15540Y-21180D01*
X15603Y-21161D01*
X15637Y-21143D01*
X15670Y-21130D01*
X15715Y-21101D01*
X15771Y-21071D01*
X15776Y-21062D01*
X15841Y-21021D01*
X15989Y-20881D01*
X16062Y-20776D01*
X16071Y-20771D01*
X16087Y-20742D01*
X16106Y-20714D01*
X16134Y-20652D01*
X16166Y-20591D01*
X16175Y-20559D01*
X16189Y-20529D01*
X16204Y-20462D01*
X16223Y-20396D01*
X16226Y-20363D01*
X16234Y-20330D01*
X16234Y-20274D01*
X16242Y-20193D01*
X16242Y-23701D01*
X16215Y-23674D01*
X16125Y-23613D01*
X16026Y-23572D01*
X15920Y-23550D01*
X15812Y-23549D01*
X15706Y-23569D01*
X15606Y-23610D01*
X15585Y-23624D01*
X15585Y-22220D01*
X15581Y-22188D01*
X15581Y-22161D01*
X15572Y-22115D01*
X15566Y-22068D01*
X15557Y-22040D01*
X15551Y-22011D01*
X15533Y-21967D01*
X15519Y-21922D01*
X15502Y-21890D01*
X15493Y-21869D01*
X15480Y-21850D01*
X15463Y-21817D01*
X15457Y-21814D01*
X15408Y-21741D01*
X15300Y-21632D01*
X15222Y-21580D01*
X15220Y-21574D01*
X15195Y-21562D01*
X15173Y-21547D01*
X15127Y-21527D01*
X15083Y-21505D01*
X15057Y-21498D01*
X15032Y-21487D01*
X14983Y-21477D01*
X14935Y-21464D01*
X14908Y-21462D01*
X14882Y-21457D01*
X14832Y-21456D01*
X14782Y-21452D01*
X14755Y-21456D01*
X14728Y-21455D01*
X14680Y-21465D01*
X14630Y-21471D01*
X14604Y-21479D01*
X14578Y-21484D01*
X14532Y-21503D01*
X14484Y-21518D01*
X14456Y-21534D01*
X14436Y-21542D01*
X14415Y-21555D01*
X14379Y-21574D01*
X14376Y-21580D01*
X14307Y-21626D01*
X14198Y-21733D01*
X14142Y-21815D01*
X14136Y-21817D01*
X14125Y-21839D01*
X14111Y-21859D01*
X14091Y-21907D01*
X14067Y-21954D01*
X14061Y-21978D01*
X14051Y-22000D01*
X14040Y-22051D01*
X14026Y-22102D01*
X14024Y-22126D01*
X14019Y-22150D01*
X14018Y-22202D01*
X14014Y-22255D01*
X14017Y-22279D01*
X14017Y-22303D01*
X14026Y-22355D01*
X14033Y-22407D01*
X14040Y-22430D01*
X14045Y-22454D01*
X14064Y-22503D01*
X14080Y-22553D01*
X14094Y-22578D01*
X14101Y-22596D01*
X14115Y-22618D01*
X14136Y-22658D01*
X14142Y-22661D01*
X14184Y-22725D01*
X14291Y-22836D01*
X14377Y-22895D01*
X14379Y-22901D01*
X14399Y-22911D01*
X14416Y-22923D01*
X14467Y-22945D01*
X14516Y-22970D01*
X14537Y-22976D01*
X14557Y-22984D01*
X14611Y-22996D01*
X14664Y-23011D01*
X14685Y-23013D01*
X14707Y-23017D01*
X14762Y-23018D01*
X14817Y-23023D01*
X14838Y-23020D01*
X14860Y-23020D01*
X14914Y-23011D01*
X14969Y-23004D01*
X14989Y-22998D01*
X15011Y-22994D01*
X15062Y-22974D01*
X15115Y-22957D01*
X15137Y-22945D01*
X15154Y-22938D01*
X15177Y-22924D01*
X15220Y-22901D01*
X15223Y-22895D01*
X15283Y-22856D01*
X15394Y-22751D01*
X15458Y-22660D01*
X15463Y-22658D01*
X15471Y-22641D01*
X15482Y-22625D01*
X15506Y-22573D01*
X15532Y-22521D01*
X15537Y-22503D01*
X15545Y-22485D01*
X15557Y-22429D01*
X15573Y-22373D01*
X15574Y-22354D01*
X15579Y-22336D01*
X15579Y-22291D01*
X15585Y-22220D01*
X15585Y-23624D01*
X15516Y-23669D01*
X15439Y-23744D01*
X15378Y-23833D01*
X15336Y-23932D01*
X15313Y-24038D01*
X15312Y-24146D01*
X15331Y-24252D01*
X15371Y-24352D01*
X15429Y-24443D01*
X15504Y-24520D01*
X15593Y-24582D01*
X15632Y-24599D01*
X15606Y-24610D01*
X15516Y-24669D01*
X15439Y-24744D01*
X15378Y-24833D01*
X15336Y-24932D01*
X15313Y-25038D01*
X15312Y-25146D01*
X15331Y-25252D01*
X15371Y-25352D01*
X15429Y-25443D01*
X15504Y-25520D01*
X15593Y-25582D01*
X15692Y-25625D01*
X15797Y-25648D01*
X15905Y-25651D01*
X16011Y-25632D01*
X16112Y-25593D01*
X16203Y-25535D01*
X16256Y-25484D01*
X16291Y-25520D01*
X16380Y-25582D01*
X16479Y-25625D01*
X16584Y-25648D01*
X16692Y-25651D01*
X16798Y-25632D01*
X16899Y-25593D01*
X16990Y-25535D01*
X17068Y-25461D01*
X17130Y-25372D01*
X17174Y-25274D01*
X17198Y-25169D01*
X17200Y-25046D01*
X17179Y-24940D01*
X17137Y-24840D01*
X17078Y-24750D01*
X17002Y-24674D01*
X16912Y-24613D01*
X16880Y-24600D01*
X16899Y-24593D01*
X16990Y-24535D01*
X17068Y-24461D01*
X17093Y-24425D01*
X17093Y-24428D01*
X17096Y-24456D01*
X17096Y-24458D01*
X17096Y-24460D01*
X17105Y-24487D01*
X17113Y-24514D01*
X17113Y-24516D01*
X17114Y-24517D01*
X17127Y-24542D01*
X17140Y-24568D01*
X17141Y-24569D01*
X17142Y-24571D01*
X17160Y-24593D01*
X17178Y-24615D01*
X17180Y-24617D01*
X17180Y-24617D01*
X17180Y-24617D01*
X17181Y-24618D01*
X17614Y-25051D01*
X17613Y-25140D01*
X17614Y-25148D01*
X17372Y-25390D01*
X17354Y-25412D01*
X17335Y-25434D01*
X17335Y-25435D01*
X17334Y-25437D01*
X17320Y-25462D01*
X17306Y-25487D01*
X17306Y-25488D01*
X17305Y-25490D01*
X17297Y-25517D01*
X17288Y-25544D01*
X17288Y-25546D01*
X17288Y-25547D01*
X17285Y-25576D01*
X17281Y-25604D01*
X17281Y-25607D01*
X17281Y-25607D01*
X17281Y-25607D01*
X17281Y-25609D01*
X17281Y-28434D01*
X17054Y-28434D01*
X17006Y-28444D01*
X16961Y-28463D01*
X16920Y-28490D01*
X16885Y-28524D01*
X16858Y-28565D01*
X16839Y-28610D01*
X16829Y-28658D01*
X16828Y-28707D01*
X16828Y-29339D01*
X16838Y-29387D01*
X16857Y-29432D01*
X16884Y-29473D01*
X16918Y-29508D01*
X16959Y-29535D01*
X17004Y-29554D01*
X17052Y-29564D01*
X17101Y-29565D01*
X18127Y-29565D01*
X18175Y-29555D01*
X18220Y-29536D01*
X18261Y-29509D01*
X18296Y-29475D01*
X18299Y-29470D01*
X18302Y-29473D01*
X18336Y-29508D01*
X18377Y-29535D01*
X18422Y-29554D01*
X18470Y-29564D01*
X18519Y-29565D01*
X19545Y-29565D01*
X19593Y-29555D01*
X19638Y-29536D01*
X19679Y-29509D01*
X19714Y-29475D01*
X19741Y-29434D01*
X19760Y-29389D01*
X19770Y-29341D01*
X19771Y-29292D01*
X19771Y-28660D01*
X19761Y-28612D01*
X19742Y-28567D01*
X19715Y-28526D01*
X19681Y-28491D01*
X19640Y-28464D01*
X19595Y-28445D01*
X19547Y-28435D01*
X19498Y-28434D01*
X19318Y-28434D01*
X19318Y-27948D01*
X19325Y-27955D01*
X19326Y-27955D01*
X19328Y-27956D01*
X19353Y-27970D01*
X19378Y-27984D01*
X19379Y-27984D01*
X19381Y-27985D01*
X19408Y-27993D01*
X19435Y-28002D01*
X19437Y-28002D01*
X19438Y-28002D01*
X19467Y-28005D01*
X19495Y-28009D01*
X19498Y-28009D01*
X19498Y-28009D01*
X19498Y-28009D01*
X19500Y-28009D01*
X21900Y-28009D01*
X21928Y-28006D01*
X21956Y-28003D01*
X21958Y-28003D01*
X21960Y-28003D01*
X21987Y-27994D01*
X22014Y-27986D01*
X22016Y-27986D01*
X22017Y-27985D01*
X22042Y-27972D01*
X22068Y-27959D01*
X22069Y-27958D01*
X22071Y-27957D01*
X22093Y-27939D01*
X22115Y-27921D01*
X22117Y-27919D01*
X22117Y-27919D01*
X22117Y-27919D01*
X22118Y-27918D01*
X23018Y-27018D01*
X23036Y-26996D01*
X23055Y-26974D01*
X23055Y-26973D01*
X23056Y-26971D01*
X23070Y-26946D01*
X23084Y-26921D01*
X23084Y-26920D01*
X23085Y-26918D01*
X23093Y-26891D01*
X23102Y-26864D01*
X23102Y-26862D01*
X23102Y-26861D01*
X23105Y-26832D01*
X23109Y-26804D01*
X23109Y-26801D01*
X23109Y-26801D01*
X23109Y-26801D01*
X23109Y-26800D01*
X23109Y-26196D01*
X23231Y-26318D01*
X23253Y-26336D01*
X23275Y-26355D01*
X23276Y-26355D01*
X23278Y-26356D01*
X23303Y-26370D01*
X23328Y-26384D01*
X23329Y-26384D01*
X23331Y-26385D01*
X23358Y-26393D01*
X23385Y-26402D01*
X23387Y-26402D01*
X23388Y-26402D01*
X23417Y-26405D01*
X23445Y-26409D01*
X23448Y-26409D01*
X23448Y-26409D01*
X23448Y-26409D01*
X23450Y-26409D01*
X24622Y-26409D01*
X24614Y-26445D01*
X24613Y-26540D01*
X24630Y-26634D01*
X24665Y-26723D01*
X24717Y-26803D01*
X24783Y-26872D01*
X24861Y-26926D01*
X24949Y-26964D01*
X25042Y-26985D01*
X25137Y-26987D01*
X25231Y-26970D01*
X25320Y-26936D01*
X25400Y-26885D01*
X25469Y-26819D01*
X25524Y-26741D01*
X25563Y-26654D01*
X25584Y-26561D01*
X25586Y-26452D01*
X25585Y-26451D01*
X25620Y-26416D01*
X25614Y-26445D01*
X25613Y-26540D01*
X25630Y-26634D01*
X25665Y-26723D01*
X25717Y-26803D01*
X25783Y-26872D01*
X25861Y-26926D01*
X25949Y-26964D01*
X26042Y-26985D01*
X26137Y-26987D01*
X26231Y-26970D01*
X26320Y-26936D01*
X26400Y-26885D01*
X26469Y-26819D01*
X26524Y-26741D01*
X26563Y-26654D01*
X26584Y-26561D01*
X26586Y-26452D01*
X26579Y-26416D01*
X26614Y-26451D01*
X26613Y-26540D01*
X26630Y-26634D01*
X26665Y-26723D01*
X26717Y-26803D01*
X26783Y-26872D01*
X26861Y-26926D01*
X26949Y-26964D01*
X27042Y-26985D01*
X27137Y-26987D01*
X27231Y-26970D01*
X27320Y-26936D01*
X27400Y-26885D01*
X27469Y-26819D01*
X27524Y-26741D01*
X27563Y-26654D01*
X27584Y-26561D01*
X27586Y-26452D01*
X27579Y-26416D01*
X27614Y-26451D01*
X27613Y-26540D01*
X27630Y-26634D01*
X27665Y-26723D01*
X27717Y-26803D01*
X27783Y-26872D01*
X27861Y-26926D01*
X27949Y-26964D01*
X28042Y-26985D01*
X28137Y-26987D01*
X28231Y-26970D01*
X28320Y-26936D01*
X28400Y-26885D01*
X28469Y-26819D01*
X28524Y-26741D01*
X28563Y-26654D01*
X28584Y-26561D01*
X28586Y-26452D01*
X28585Y-26451D01*
X28628Y-26409D01*
X29337Y-26409D01*
X29331Y-26414D01*
X29304Y-26455D01*
X29285Y-26500D01*
X29275Y-26548D01*
X29274Y-26597D01*
X29274Y-26849D01*
X29284Y-26897D01*
X29303Y-26942D01*
X29330Y-26983D01*
X29364Y-27018D01*
X29405Y-27045D01*
X29447Y-27063D01*
X29455Y-27087D01*
X29463Y-27114D01*
X29463Y-27116D01*
X29464Y-27117D01*
X29477Y-27142D01*
X29490Y-27168D01*
X29491Y-27169D01*
X29492Y-27171D01*
X29510Y-27193D01*
X29528Y-27215D01*
X29530Y-27217D01*
X29530Y-27217D01*
X29530Y-27217D01*
X29531Y-27218D01*
X29731Y-27418D01*
X29753Y-27436D01*
X29775Y-27455D01*
X29776Y-27455D01*
X29778Y-27456D01*
X29803Y-27470D01*
X29828Y-27484D01*
X29829Y-27484D01*
X29831Y-27485D01*
X29858Y-27493D01*
X29885Y-27502D01*
X29887Y-27502D01*
X29888Y-27502D01*
X29917Y-27505D01*
X29945Y-27509D01*
X29948Y-27509D01*
X29948Y-27509D01*
X29948Y-27509D01*
X29950Y-27509D01*
X31022Y-27509D01*
X31083Y-27572D01*
X31161Y-27626D01*
X31249Y-27664D01*
X31342Y-27685D01*
X31437Y-27687D01*
X31531Y-27670D01*
X31620Y-27636D01*
X31700Y-27585D01*
X31769Y-27519D01*
X31824Y-27441D01*
X31863Y-27354D01*
X31884Y-27261D01*
X31886Y-27152D01*
X31886Y-30350D01*
X31642Y-30350D01*
X31642Y-28993D01*
X31636Y-28940D01*
X31637Y-28898D01*
X31626Y-28845D01*
X31621Y-28791D01*
X31607Y-28745D01*
X31597Y-28698D01*
X31577Y-28648D01*
X31561Y-28596D01*
X31537Y-28552D01*
X31520Y-28510D01*
X31495Y-28473D01*
X31471Y-28428D01*
X31461Y-28422D01*
X31407Y-28341D01*
X31264Y-28196D01*
X31177Y-28138D01*
X31171Y-28128D01*
X31132Y-28107D01*
X31095Y-28083D01*
X31042Y-28060D01*
X30991Y-28033D01*
X30948Y-28021D01*
X30908Y-28004D01*
X30851Y-27992D01*
X30796Y-27976D01*
X30752Y-27972D01*
X30708Y-27963D01*
X30651Y-27962D01*
X30593Y-27957D01*
X30549Y-27962D01*
X30505Y-27961D01*
X30448Y-27972D01*
X30391Y-27978D01*
X30349Y-27991D01*
X30305Y-27999D01*
X30252Y-28021D01*
X30196Y-28038D01*
X30155Y-28060D01*
X30117Y-28076D01*
X30076Y-28102D01*
X30028Y-28128D01*
X30022Y-28137D01*
X29946Y-28187D01*
X29801Y-28329D01*
X29737Y-28422D01*
X29728Y-28428D01*
X29709Y-28464D01*
X29686Y-28497D01*
X29662Y-28554D01*
X29633Y-28608D01*
X29622Y-28647D01*
X29606Y-28684D01*
X29593Y-28744D01*
X29576Y-28803D01*
X29572Y-28844D01*
X29564Y-28883D01*
X29563Y-28945D01*
X29557Y-29006D01*
X29561Y-29046D01*
X29561Y-29087D01*
X29572Y-29147D01*
X29578Y-29208D01*
X29590Y-29247D01*
X29597Y-29287D01*
X29620Y-29344D01*
X29638Y-29403D01*
X29658Y-29440D01*
X29672Y-29476D01*
X29700Y-29519D01*
X29728Y-29571D01*
X29737Y-29577D01*
X29783Y-29647D01*
X29924Y-29793D01*
X30022Y-29862D01*
X30028Y-29871D01*
X30061Y-29888D01*
X30091Y-29909D01*
X30151Y-29935D01*
X30208Y-29966D01*
X30244Y-29976D01*
X30277Y-29991D01*
X30341Y-30005D01*
X30403Y-30023D01*
X30440Y-30027D01*
X30476Y-30035D01*
X30541Y-30036D01*
X30606Y-30042D01*
X30643Y-30038D01*
X30679Y-30039D01*
X30744Y-30028D01*
X30808Y-30021D01*
X30843Y-30010D01*
X30880Y-30004D01*
X30940Y-29980D01*
X31003Y-29961D01*
X31037Y-29943D01*
X31070Y-29930D01*
X31115Y-29901D01*
X31171Y-29871D01*
X31176Y-29862D01*
X31241Y-29821D01*
X31389Y-29681D01*
X31462Y-29576D01*
X31471Y-29571D01*
X31487Y-29542D01*
X31506Y-29514D01*
X31534Y-29452D01*
X31566Y-29391D01*
X31575Y-29359D01*
X31589Y-29329D01*
X31604Y-29262D01*
X31623Y-29196D01*
X31626Y-29163D01*
X31634Y-29130D01*
X31634Y-29074D01*
X31642Y-28993D01*
X31642Y-30350D01*
X27750Y-30350D01*
X27750Y-28427D01*
X27750Y-27825D01*
X27740Y-27777D01*
X27721Y-27732D01*
X27694Y-27691D01*
X27660Y-27656D01*
X27619Y-27629D01*
X27574Y-27610D01*
X27526Y-27600D01*
X27477Y-27599D01*
X26875Y-27599D01*
X26827Y-27609D01*
X26782Y-27628D01*
X26741Y-27655D01*
X26706Y-27689D01*
X26679Y-27730D01*
X26660Y-27775D01*
X26650Y-27823D01*
X26650Y-27833D01*
X26628Y-27800D01*
X26552Y-27724D01*
X26462Y-27663D01*
X26363Y-27622D01*
X26257Y-27600D01*
X26149Y-27599D01*
X26043Y-27619D01*
X25943Y-27660D01*
X25853Y-27719D01*
X25776Y-27794D01*
X25715Y-27883D01*
X25700Y-27920D01*
X25687Y-27890D01*
X25628Y-27800D01*
X25552Y-27724D01*
X25462Y-27663D01*
X25363Y-27622D01*
X25257Y-27600D01*
X25149Y-27599D01*
X25043Y-27619D01*
X24943Y-27660D01*
X24853Y-27719D01*
X24776Y-27794D01*
X24715Y-27883D01*
X24673Y-27982D01*
X24650Y-28088D01*
X24649Y-28196D01*
X24668Y-28302D01*
X24708Y-28402D01*
X24766Y-28493D01*
X24841Y-28570D01*
X24930Y-28632D01*
X24969Y-28649D01*
X24943Y-28660D01*
X24853Y-28719D01*
X24776Y-28794D01*
X24715Y-28883D01*
X24673Y-28982D01*
X24650Y-29088D01*
X24649Y-29196D01*
X24668Y-29302D01*
X24708Y-29402D01*
X24766Y-29493D01*
X24841Y-29570D01*
X24930Y-29632D01*
X25029Y-29675D01*
X25134Y-29698D01*
X25242Y-29701D01*
X25348Y-29682D01*
X25449Y-29643D01*
X25540Y-29585D01*
X25618Y-29511D01*
X25680Y-29422D01*
X25699Y-29380D01*
X25708Y-29402D01*
X25766Y-29493D01*
X25841Y-29570D01*
X25930Y-29632D01*
X26029Y-29675D01*
X26134Y-29698D01*
X26242Y-29701D01*
X26348Y-29682D01*
X26449Y-29643D01*
X26540Y-29585D01*
X26618Y-29511D01*
X26680Y-29422D01*
X26699Y-29380D01*
X26708Y-29402D01*
X26766Y-29493D01*
X26841Y-29570D01*
X26930Y-29632D01*
X27029Y-29675D01*
X27134Y-29698D01*
X27242Y-29701D01*
X27348Y-29682D01*
X27449Y-29643D01*
X27540Y-29585D01*
X27618Y-29511D01*
X27680Y-29422D01*
X27724Y-29324D01*
X27748Y-29219D01*
X27750Y-29096D01*
X27729Y-28990D01*
X27687Y-28890D01*
X27628Y-28800D01*
X27552Y-28724D01*
X27516Y-28700D01*
X27524Y-28700D01*
X27572Y-28690D01*
X27617Y-28671D01*
X27658Y-28644D01*
X27693Y-28610D01*
X27720Y-28569D01*
X27739Y-28524D01*
X27749Y-28476D01*
X27750Y-28427D01*
X27750Y-30350D01*
X22580Y-30350D01*
X22580Y-28943D01*
X22557Y-28831D01*
X22514Y-28726D01*
X22451Y-28631D01*
X22371Y-28550D01*
X22277Y-28487D01*
X22172Y-28443D01*
X22060Y-28420D01*
X21947Y-28419D01*
X21835Y-28440D01*
X21729Y-28483D01*
X21634Y-28545D01*
X21553Y-28625D01*
X21499Y-28703D01*
X21451Y-28631D01*
X21371Y-28550D01*
X21277Y-28487D01*
X21172Y-28443D01*
X21060Y-28420D01*
X20947Y-28419D01*
X20835Y-28440D01*
X20729Y-28483D01*
X20634Y-28545D01*
X20553Y-28625D01*
X20489Y-28719D01*
X20444Y-28823D01*
X20420Y-28935D01*
X20419Y-29048D01*
X20439Y-29160D01*
X20481Y-29266D01*
X20543Y-29362D01*
X20622Y-29443D01*
X20715Y-29508D01*
X20819Y-29554D01*
X20930Y-29578D01*
X21044Y-29581D01*
X21156Y-29561D01*
X21262Y-29520D01*
X21358Y-29459D01*
X21441Y-29380D01*
X21500Y-29296D01*
X21543Y-29362D01*
X21622Y-29443D01*
X21715Y-29508D01*
X21819Y-29554D01*
X21930Y-29578D01*
X22044Y-29581D01*
X22156Y-29561D01*
X22262Y-29520D01*
X22358Y-29459D01*
X22441Y-29380D01*
X22506Y-29287D01*
X22553Y-29183D01*
X22578Y-29073D01*
X22580Y-28943D01*
X22580Y-30350D01*
X16242Y-30350D01*
X16242Y-28993D01*
X16236Y-28940D01*
X16237Y-28898D01*
X16226Y-28845D01*
X16221Y-28791D01*
X16207Y-28745D01*
X16197Y-28698D01*
X16177Y-28648D01*
X16161Y-28596D01*
X16137Y-28552D01*
X16120Y-28510D01*
X16095Y-28473D01*
X16071Y-28428D01*
X16061Y-28422D01*
X16007Y-28341D01*
X15864Y-28196D01*
X15777Y-28138D01*
X15771Y-28128D01*
X15732Y-28107D01*
X15695Y-28083D01*
X15642Y-28060D01*
X15591Y-28033D01*
X15585Y-28031D01*
X15585Y-26944D01*
X15581Y-26912D01*
X15581Y-26885D01*
X15572Y-26839D01*
X15566Y-26792D01*
X15557Y-26764D01*
X15551Y-26735D01*
X15533Y-26691D01*
X15519Y-26646D01*
X15502Y-26614D01*
X15493Y-26593D01*
X15480Y-26574D01*
X15463Y-26541D01*
X15457Y-26538D01*
X15408Y-26465D01*
X15300Y-26356D01*
X15222Y-26304D01*
X15220Y-26298D01*
X15195Y-26286D01*
X15173Y-26271D01*
X15127Y-26251D01*
X15083Y-26229D01*
X15057Y-26222D01*
X15032Y-26211D01*
X14983Y-26201D01*
X14935Y-26188D01*
X14908Y-26186D01*
X14882Y-26181D01*
X14832Y-26180D01*
X14782Y-26176D01*
X14755Y-26180D01*
X14728Y-26179D01*
X14680Y-26189D01*
X14630Y-26195D01*
X14604Y-26203D01*
X14578Y-26208D01*
X14532Y-26227D01*
X14484Y-26242D01*
X14456Y-26258D01*
X14436Y-26266D01*
X14415Y-26279D01*
X14379Y-26298D01*
X14376Y-26304D01*
X14307Y-26350D01*
X14198Y-26457D01*
X14142Y-26539D01*
X14136Y-26541D01*
X14125Y-26563D01*
X14111Y-26583D01*
X14091Y-26631D01*
X14067Y-26678D01*
X14061Y-26702D01*
X14051Y-26724D01*
X14040Y-26775D01*
X14026Y-26826D01*
X14024Y-26850D01*
X14019Y-26874D01*
X14018Y-26926D01*
X14014Y-26979D01*
X14017Y-27003D01*
X14017Y-27027D01*
X14026Y-27079D01*
X14033Y-27131D01*
X14040Y-27154D01*
X14045Y-27178D01*
X14064Y-27227D01*
X14080Y-27277D01*
X14094Y-27302D01*
X14101Y-27320D01*
X14115Y-27342D01*
X14136Y-27382D01*
X14142Y-27385D01*
X14184Y-27449D01*
X14291Y-27560D01*
X14377Y-27619D01*
X14379Y-27625D01*
X14399Y-27635D01*
X14416Y-27647D01*
X14467Y-27669D01*
X14516Y-27694D01*
X14537Y-27700D01*
X14557Y-27708D01*
X14611Y-27720D01*
X14664Y-27735D01*
X14685Y-27737D01*
X14707Y-27741D01*
X14762Y-27742D01*
X14817Y-27747D01*
X14838Y-27744D01*
X14860Y-27744D01*
X14914Y-27735D01*
X14969Y-27728D01*
X14989Y-27722D01*
X15011Y-27718D01*
X15062Y-27698D01*
X15115Y-27681D01*
X15137Y-27669D01*
X15154Y-27662D01*
X15177Y-27648D01*
X15220Y-27625D01*
X15223Y-27619D01*
X15283Y-27580D01*
X15394Y-27475D01*
X15458Y-27384D01*
X15463Y-27382D01*
X15471Y-27365D01*
X15482Y-27349D01*
X15506Y-27297D01*
X15532Y-27245D01*
X15537Y-27227D01*
X15545Y-27209D01*
X15557Y-27153D01*
X15573Y-27097D01*
X15574Y-27078D01*
X15579Y-27060D01*
X15579Y-27015D01*
X15585Y-26944D01*
X15585Y-28031D01*
X15548Y-28021D01*
X15508Y-28004D01*
X15451Y-27992D01*
X15396Y-27976D01*
X15352Y-27972D01*
X15308Y-27963D01*
X15251Y-27962D01*
X15193Y-27957D01*
X15149Y-27962D01*
X15105Y-27961D01*
X15048Y-27972D01*
X14991Y-27978D01*
X14949Y-27991D01*
X14905Y-27999D01*
X14852Y-28021D01*
X14796Y-28038D01*
X14755Y-28060D01*
X14717Y-28076D01*
X14676Y-28102D01*
X14628Y-28128D01*
X14622Y-28137D01*
X14546Y-28187D01*
X14401Y-28329D01*
X14337Y-28422D01*
X14328Y-28428D01*
X14309Y-28464D01*
X14286Y-28497D01*
X14262Y-28554D01*
X14233Y-28608D01*
X14222Y-28647D01*
X14206Y-28684D01*
X14193Y-28744D01*
X14176Y-28803D01*
X14172Y-28844D01*
X14164Y-28883D01*
X14163Y-28945D01*
X14157Y-29006D01*
X14161Y-29046D01*
X14161Y-29087D01*
X14172Y-29147D01*
X14178Y-29208D01*
X14190Y-29247D01*
X14197Y-29287D01*
X14220Y-29344D01*
X14238Y-29403D01*
X14258Y-29440D01*
X14272Y-29476D01*
X14300Y-29519D01*
X14328Y-29571D01*
X14337Y-29577D01*
X14383Y-29647D01*
X14524Y-29793D01*
X14622Y-29862D01*
X14628Y-29871D01*
X14661Y-29888D01*
X14691Y-29909D01*
X14751Y-29935D01*
X14808Y-29966D01*
X14844Y-29976D01*
X14877Y-29991D01*
X14941Y-30005D01*
X15003Y-30023D01*
X15040Y-30027D01*
X15076Y-30035D01*
X15141Y-30036D01*
X15206Y-30042D01*
X15243Y-30038D01*
X15279Y-30039D01*
X15344Y-30028D01*
X15408Y-30021D01*
X15443Y-30010D01*
X15480Y-30004D01*
X15540Y-29980D01*
X15603Y-29961D01*
X15637Y-29943D01*
X15670Y-29930D01*
X15715Y-29901D01*
X15771Y-29871D01*
X15776Y-29862D01*
X15841Y-29821D01*
X15989Y-29681D01*
X16062Y-29576D01*
X16071Y-29571D01*
X16087Y-29542D01*
X16106Y-29514D01*
X16134Y-29452D01*
X16166Y-29391D01*
X16175Y-29359D01*
X16189Y-29329D01*
X16204Y-29262D01*
X16223Y-29196D01*
X16226Y-29163D01*
X16234Y-29130D01*
X16234Y-29074D01*
X16242Y-28993D01*
X16242Y-30350D01*
X13850Y-30350D01*
X13850Y-18850D01*
X31950Y-18850D01*
X31950Y-23045D01*
X31929Y-22940D01*
X31887Y-22840D01*
X31828Y-22750D01*
X31752Y-22674D01*
X31662Y-22613D01*
X31563Y-22572D01*
X31457Y-22550D01*
X31349Y-22549D01*
X31243Y-22569D01*
X31143Y-22610D01*
X31053Y-22669D01*
X30976Y-22744D01*
X30915Y-22833D01*
X30873Y-22932D01*
X30850Y-23038D01*
X30849Y-23146D01*
X30868Y-23252D01*
X30908Y-23352D01*
X30966Y-23443D01*
X31041Y-23520D01*
X31130Y-23582D01*
X31169Y-23599D01*
X31143Y-23610D01*
X31053Y-23669D01*
X30976Y-23744D01*
X30915Y-23833D01*
X30873Y-23932D01*
X30850Y-24038D01*
X30849Y-24146D01*
X30868Y-24252D01*
X30908Y-24352D01*
X30966Y-24443D01*
X31041Y-24520D01*
X31130Y-24582D01*
X31169Y-24599D01*
X31143Y-24610D01*
X31053Y-24669D01*
X30976Y-24744D01*
X30915Y-24833D01*
X30873Y-24932D01*
X30850Y-25038D01*
X30849Y-25146D01*
X30868Y-25252D01*
X30908Y-25352D01*
X30966Y-25443D01*
X31041Y-25520D01*
X31083Y-25549D01*
X31075Y-25549D01*
X31027Y-25559D01*
X30982Y-25578D01*
X30941Y-25605D01*
X30906Y-25639D01*
X30879Y-25680D01*
X30860Y-25725D01*
X30850Y-25773D01*
X30849Y-25822D01*
X30849Y-26424D01*
X30859Y-26472D01*
X30878Y-26517D01*
X30905Y-26558D01*
X30939Y-26593D01*
X30980Y-26620D01*
X31025Y-26639D01*
X31073Y-26649D01*
X31122Y-26650D01*
X31724Y-26650D01*
X31772Y-26640D01*
X31817Y-26621D01*
X31858Y-26594D01*
X31893Y-26560D01*
X31920Y-26519D01*
X31939Y-26474D01*
X31949Y-26426D01*
X31950Y-26402D01*
X31950Y-30350D01*
M02*
