M48
;DRILL file {Pcbnew (2013-05-31 BZR 4019)-stable} date 24.10.2013 17:06:01
;FORMAT={3:3/ absolute / metric / keep zeros}
FMAT,2
METRIC,TZ
T1C0.813
T2C0.825
T3C1.016
T4C2.301
T5C3.400
%
G90
G05
M71
T1
X040292Y-061214
X040292Y-063754
X042291Y-061214
X042291Y-063754
X053340Y-067564
X053340Y-073660
X055880Y-067564
X055880Y-073660
T2
X045974Y-052451
X045974Y-054483
X045974Y-063754
X045974Y-066929
X049784Y-064770
X053213Y-050292
X055626Y-064770
X058928Y-050292
X063754Y-067310
X066294Y-067310
X068834Y-067310
X071374Y-067310
X076327Y-061214
X076327Y-063754
X079756Y-055880
X079756Y-069088
T3
X064008Y-071501
X064008Y-074041
X066548Y-071501
X066548Y-074041
X069088Y-071501
X069088Y-074041
X079756Y-058674
X079756Y-061214
X079756Y-063754
X079756Y-066294
T4
X037592Y-056485
X037592Y-068483
T5
X038608Y-051308
X038608Y-073660
X077724Y-051308
X077724Y-073660
T0
M30
