<?xml version="1.0" encoding="utf-8"?>
<!-- Generator: Adobe Illustrator 16.0.0, SVG Export Plug-In . SVG Version: 6.00 Build 0)  -->
<!DOCTYPE svg PUBLIC "-//W3C//DTD SVG 1.1//EN" "http://www.w3.org/Graphics/SVG/1.1/DTD/svg11.dtd">
<svg version="1.1" xmlns="http://www.w3.org/2000/svg" xmlns:xlink="http://www.w3.org/1999/xlink" x="0px" y="0px" width="520px"
	 height="240.667px" viewBox="0 0 520 240.667" enable-background="new 0 0 520 240.667" xml:space="preserve">
<g id="Layer_2">
	<g display="none">
		<rect x="-8.031" y="21.702" display="inline" fill="none" width="820.868" height="509.699"/>
		<path display="inline" fill="#808080" d="M30.256,206.358l-8.637,12.504H9.372V21.624h24.494v66.777
			c2.321-3.179,6.682-6.101,13.085-8.766c6.401-2.663,12.698-3.997,18.886-3.997c18.906,0,34.227,6.533,45.958,19.595
			c11.731,13.064,17.597,29.566,17.597,49.504c0,23.033-5.888,41.146-17.661,54.337c-11.775,13.193-27.717,19.788-47.827,19.788
			c-6.532,0-12.956-1.225-19.272-3.674C38.313,212.739,33.521,209.795,30.256,206.358z M33.866,107.093v79.669
			c0,1.376,3.05,3.632,9.153,6.768c6.102,3.139,10.742,4.706,13.923,4.706c16.672,0,28.619-3.997,35.838-11.989
			c7.219-7.992,10.829-21.399,10.829-40.221c0-15.641-4.212-27.846-12.634-36.611c-8.423-8.767-19.768-13.15-34.033-13.15
			c-3.009,0-7.199,1.289-12.569,3.868C39,102.71,35.498,105.031,33.866,107.093z"/>
		<path display="inline" fill="#808080" d="M158.396,177.223v-155.6h24.494v151.475c0,7.392,2.127,13.213,6.381,17.467
			c4.254,4.254,9.818,6.382,16.694,6.382v21.915C174.253,218.862,158.396,204.983,158.396,177.223z"/>
		<path display="inline" fill="#808080" d="M257.531,78.217v88.048c0,21.315,9.238,31.971,27.717,31.971
			c8.078,0,15.47-2.321,22.174-6.962c6.703-4.641,11.129-10.011,13.277-16.113V78.217h24.494v138.067h-24.494v-19.079
			c-2.751,5.414-8.271,10.378-16.564,14.89c-8.295,4.512-16.395,6.768-24.301,6.768c-15.127,0-26.707-4.338-34.742-13.02
			c-8.037-8.68-12.054-21.014-12.054-36.999V78.217H257.531z"/>
		<path display="inline" fill="#808080" d="M399.467,206.358l-8.638,12.504h-12.247V21.624h24.494v66.777
			c2.32-3.179,6.682-6.101,13.084-8.766c6.402-2.663,12.698-3.997,18.887-3.997c18.905,0,34.227,6.533,45.957,19.595
			c11.731,13.064,17.598,29.566,17.598,49.504c0,23.033-5.888,41.146-17.662,54.337c-11.775,13.193-27.716,19.788-47.826,19.788
			c-6.533,0-12.957-1.225-19.273-3.674S402.731,209.795,399.467,206.358z M403.076,107.093v79.669c0,1.376,3.049,3.632,9.152,6.768
			c6.102,3.139,10.742,4.706,13.923,4.706c16.672,0,28.619-3.997,35.838-11.989c7.22-7.992,10.829-21.399,10.829-40.221
			c0-15.641-4.212-27.846-12.634-36.611c-8.424-8.767-19.768-13.15-34.033-13.15c-3.009,0-7.199,1.289-12.569,3.868
			C408.21,102.71,404.707,105.031,403.076,107.093z"/>
	</g>
</g>
<g id="Layer_1">
	<path d="M48,206.837c0,6.533-5.296,11.829-11.829,11.829h-0.343c-6.533,0-11.829-5.296-11.829-11.829V32.496
		c0-6.533,5.296-11.829,11.829-11.829h0.343C42.704,20.667,48,25.962,48,32.496V206.837z"/>
	<path d="M188,206.837c0,6.533-5.296,11.829-11.829,11.829h-0.343c-6.533,0-11.829-5.296-11.829-11.829V32.496
		c0-6.533,5.296-11.829,11.829-11.829h0.343c6.533,0,11.829,5.296,11.829,11.829V206.837z"/>
	<path d="M272,184.837c0,6.533-5.296,11.829-11.828,11.829h-0.344c-6.532,0-11.828-5.296-11.828-11.829V88.496
		c0-6.533,5.296-11.829,11.828-11.829h0.344c6.532,0,11.828,5.296,11.828,11.829V184.837z"/>
	<path d="M356,206.837c0,6.533-5.296,11.829-11.828,11.829h-0.344c-6.532,0-11.828-5.296-11.828-11.829V88.496
		c0-6.533,5.296-11.829,11.828-11.829h0.344c6.532,0,11.828,5.296,11.828,11.829V206.837z"/>
	<path d="M216,206.837c0,6.533-5.296,11.829-11.829,11.829h-0.343c-6.533,0-11.829-5.296-11.829-11.829v-4.342
		c0-6.533,5.296-11.829,11.829-11.829h0.343c6.533,0,11.829,5.296,11.829,11.829V206.837z"/>
	<path d="M300,206.837c0,6.533-5.296,11.829-11.828,11.829h-0.344c-6.532,0-11.828-5.296-11.828-11.829v-4.342
		c0-6.533,5.296-11.829,11.828-11.829h0.344c6.532,0,11.828,5.296,11.828,11.829V206.837z"/>
	<path d="M76,204.837c0,6.533-5.296,11.829-11.829,11.829h-0.343c-6.533,0-11.829-5.296-11.829-11.829v-1.342
		c0-6.533,5.296-11.829,11.829-11.829h0.343c6.533,0,11.829,5.296,11.829,11.829V204.837z"/>
	<path d="M76,88.837c0,6.533-5.296,11.829-11.829,11.829h-0.343C57.296,100.667,52,95.371,52,88.837v-1.342
		c0-6.533,5.296-11.829,11.829-11.829h0.343C70.704,75.667,76,80.962,76,87.496V88.837z"/>
	<path d="M328,200.837c0,6.533-5.296,11.829-11.828,11.829h-0.344c-6.532,0-11.828-5.296-11.828-11.829v-1.342
		c0-6.533,5.296-11.829,11.828-11.829h0.344c6.532,0,11.828,5.296,11.828,11.829V200.837z"/>
	<path d="M104,87.837c0,6.533-5.296,11.829-11.829,11.829h-0.343C85.296,99.667,80,94.371,80,87.837v-2.342
		c0-6.533,5.296-11.829,11.829-11.829h0.343c6.533,0,11.829,5.296,11.829,11.829V87.837z"/>
	<path d="M468,87.837c0,6.533-5.296,11.829-11.828,11.829h-0.344c-6.532,0-11.828-5.296-11.828-11.829v-2.342
		c0-6.533,5.296-11.829,11.828-11.829h0.344c6.532,0,11.828,5.296,11.828,11.829V87.837z"/>
	<path d="M104,205.837c0,6.533-5.296,11.829-11.829,11.829h-0.343c-6.533,0-11.829-5.296-11.829-11.829v-2.342
		c0-6.533,5.296-11.829,11.829-11.829h0.343c6.533,0,11.829,5.296,11.829,11.829V205.837z"/>
	<path d="M132,191.837c0,6.533-5.296,11.829-11.829,11.829h-0.343c-6.533,0-11.829-5.296-11.829-11.829v-91.342
		c0-6.533,5.296-11.829,11.829-11.829h0.343c6.533,0,11.829,5.296,11.829,11.829V191.837z"/>
	<path d="M412,206.837c0,6.533-5.296,11.829-11.828,11.829h-0.344c-6.532,0-11.828-5.296-11.828-11.829V32.496
		c0-6.533,5.296-11.829,11.828-11.829h0.344c6.532,0,11.828,5.296,11.828,11.829V206.837z"/>
	<path d="M440,204.837c0,6.533-5.296,11.829-11.828,11.829h-0.344c-6.532,0-11.828-5.296-11.828-11.829v-1.342
		c0-6.533,5.296-11.829,11.828-11.829h0.344c6.532,0,11.828,5.296,11.828,11.829V204.837z"/>
	<path d="M440,88.837c0,6.533-5.296,11.829-11.828,11.829h-0.344c-6.532,0-11.828-5.296-11.828-11.829v-1.342
		c0-6.533,5.296-11.829,11.828-11.829h0.344c6.532,0,11.828,5.296,11.828,11.829V88.837z"/>
	<path d="M468,205.837c0,6.533-5.296,11.829-11.828,11.829h-0.344c-6.532,0-11.828-5.296-11.828-11.829v-2.342
		c0-6.533,5.296-11.829,11.828-11.829h0.344c6.532,0,11.828,5.296,11.828,11.829V205.837z"/>
	<path d="M496,191.837c0,6.533-5.296,11.829-11.828,11.829h-0.344c-6.532,0-11.828-5.296-11.828-11.829v-91.342
		c0-6.533,5.296-11.829,11.828-11.829h0.344c6.532,0,11.828,5.296,11.828,11.829V191.837z"/>
	<rect x="33" y="69.667" display="none" fill="#CCCCCC" width="4" height="156"/>
	<rect x="61" y="69.667" display="none" fill="#CCCCCC" width="4" height="156"/>
	<rect x="89" y="69.667" display="none" fill="#CCCCCC" width="4" height="156"/>
	<rect x="173" y="63.667" display="none" fill="#CCCCCC" width="4" height="156"/>
	<rect x="117" y="71.667" display="none" fill="#CCCCCC" width="4" height="156"/>
	<rect x="145" y="71.667" display="none" fill="#CCCCCC" width="4" height="156"/>
	<rect x="201" y="71.667" display="none" fill="#CCCCCC" width="4" height="156"/>
	<rect x="229" y="69.667" display="none" fill="#CCCCCC" width="4" height="156"/>
	<rect x="257" y="81.667" display="none" fill="#CCCCCC" width="4" height="156"/>
	<rect x="285" y="81.667" display="none" fill="#CCCCCC" width="4" height="156"/>
	<rect x="369" y="81.667" display="none" fill="#CCCCCC" width="4" height="156"/>
	<rect x="313" y="81.667" display="none" fill="#CCCCCC" width="4" height="156"/>
	<rect x="341" y="81.667" display="none" fill="#CCCCCC" width="4" height="156"/>
</g>
<g id="Layer_3">
</g>
</svg>
